<svg width="18" height="14" viewBox="0 0 18 14" fill="none" xmlns="http://www.w3.org/2000/svg">
<mask id="path-1-inside-1_1_10754" fill="white">
<path fill-rule="evenodd" clip-rule="evenodd" d="M0.00503574 3.36493C2.79984e-05 3.7036 1.55666e-07 4.07799 8.65483e-10 4.49303C8.65483e-10 4.49535 0 4.49768 0 4.5V9C0 11.1213 0 12.182 0.65901 12.841C1.31802 13.5 2.37868 13.5 4.5 13.5H13.5C15.6213 13.5 16.682 13.5 17.341 12.841C18 12.182 18 11.1213 18 9V4.5C18 4.49768 18 4.49536 18 4.49303C18 4.07798 18 3.7036 17.995 3.36493C17.9744 1.97643 17.8702 1.18822 17.341 0.65901C16.682 0 15.6213 0 13.5 0H4.5C2.37868 0 1.31802 0 0.65901 0.65901C0.129802 1.18822 0.0255666 1.97643 0.00503574 3.36493ZM15.9928 3.26058C15.9849 2.84963 15.9687 2.545 15.9355 2.29763C15.9237 2.21033 15.9116 2.14564 15.901 2.09898C15.8544 2.0884 15.7897 2.07628 15.7024 2.06454C15.2539 2.00425 14.6172 2 13.5 2H4.5C3.3828 2 2.7461 2.00425 2.29763 2.06454C2.21033 2.07628 2.14564 2.0884 2.09898 2.09898C2.0884 2.14564 2.07628 2.21033 2.06454 2.29763C2.03128 2.545 2.01508 2.84963 2.00723 3.26058L8.44098 6.47746C8.79289 6.65341 9.20711 6.65341 9.55902 6.47746L15.9928 3.26058ZM2 5.49303V9C2 10.1172 2.00425 10.7539 2.06454 11.2024C2.07628 11.2897 2.0884 11.3544 2.09898 11.401C2.14564 11.4116 2.21033 11.4237 2.29763 11.4355C2.7461 11.4958 3.3828 11.5 4.5 11.5H13.5C14.6172 11.5 15.2539 11.4958 15.7024 11.4355C15.7897 11.4237 15.8544 11.4116 15.901 11.401C15.9116 11.3544 15.9237 11.2897 15.9355 11.2024C15.9958 10.7539 16 10.1172 16 9V5.49303L10.4534 8.26631C9.53848 8.72379 8.46152 8.72379 7.54656 8.26631L2 5.49303ZM15.8698 11.5054C15.8696 11.5051 15.8711 11.5012 15.8747 11.4946C15.8717 11.5024 15.8699 11.5057 15.8698 11.5054ZM15.9946 11.3747C16.0012 11.3711 16.0051 11.3696 16.0054 11.3698C16.0057 11.3699 16.0024 11.3716 15.9946 11.3747ZM1.99462 11.3698C1.99493 11.3696 1.99885 11.3711 2.00543 11.3747C1.9976 11.3716 1.99431 11.3699 1.99462 11.3698ZM2.12535 11.4946C2.12887 11.5012 2.13037 11.5051 2.13024 11.5054C2.13011 11.5057 2.12835 11.5024 2.12535 11.4946ZM2.13024 1.99462C2.13037 1.99493 2.12887 1.99885 2.12535 2.00543C2.12835 1.9976 2.13011 1.99431 2.13024 1.99462ZM2.00543 2.12535C1.99885 2.12887 1.99493 2.13037 1.99462 2.13024C1.99431 2.13011 1.9976 2.12835 2.00543 2.12535ZM16.0054 2.13024C16.0051 2.13037 16.0012 2.12887 15.9946 2.12535C16.0024 2.12835 16.0057 2.13011 16.0054 2.13024ZM15.8747 2.00543C15.8711 1.99885 15.8696 1.99493 15.8698 1.99462C15.8699 1.99431 15.8716 1.9976 15.8747 2.00543Z"/>
</mask>
<path fill-rule="evenodd" clip-rule="evenodd" d="M0.00503574 3.36493C2.79984e-05 3.7036 1.55666e-07 4.07799 8.65483e-10 4.49303C8.65483e-10 4.49535 0 4.49768 0 4.5V9C0 11.1213 0 12.182 0.65901 12.841C1.31802 13.5 2.37868 13.5 4.5 13.5H13.5C15.6213 13.5 16.682 13.5 17.341 12.841C18 12.182 18 11.1213 18 9V4.5C18 4.49768 18 4.49536 18 4.49303C18 4.07798 18 3.7036 17.995 3.36493C17.9744 1.97643 17.8702 1.18822 17.341 0.65901C16.682 0 15.6213 0 13.5 0H4.5C2.37868 0 1.31802 0 0.65901 0.65901C0.129802 1.18822 0.0255666 1.97643 0.00503574 3.36493ZM15.9928 3.26058C15.9849 2.84963 15.9687 2.545 15.9355 2.29763C15.9237 2.21033 15.9116 2.14564 15.901 2.09898C15.8544 2.0884 15.7897 2.07628 15.7024 2.06454C15.2539 2.00425 14.6172 2 13.5 2H4.5C3.3828 2 2.7461 2.00425 2.29763 2.06454C2.21033 2.07628 2.14564 2.0884 2.09898 2.09898C2.0884 2.14564 2.07628 2.21033 2.06454 2.29763C2.03128 2.545 2.01508 2.84963 2.00723 3.26058L8.44098 6.47746C8.79289 6.65341 9.20711 6.65341 9.55902 6.47746L15.9928 3.26058ZM2 5.49303V9C2 10.1172 2.00425 10.7539 2.06454 11.2024C2.07628 11.2897 2.0884 11.3544 2.09898 11.401C2.14564 11.4116 2.21033 11.4237 2.29763 11.4355C2.7461 11.4958 3.3828 11.5 4.5 11.5H13.5C14.6172 11.5 15.2539 11.4958 15.7024 11.4355C15.7897 11.4237 15.8544 11.4116 15.901 11.401C15.9116 11.3544 15.9237 11.2897 15.9355 11.2024C15.9958 10.7539 16 10.1172 16 9V5.49303L10.4534 8.26631C9.53848 8.72379 8.46152 8.72379 7.54656 8.26631L2 5.49303ZM15.8698 11.5054C15.8696 11.5051 15.8711 11.5012 15.8747 11.4946C15.8717 11.5024 15.8699 11.5057 15.8698 11.5054ZM15.9946 11.3747C16.0012 11.3711 16.0051 11.3696 16.0054 11.3698C16.0057 11.3699 16.0024 11.3716 15.9946 11.3747ZM1.99462 11.3698C1.99493 11.3696 1.99885 11.3711 2.00543 11.3747C1.9976 11.3716 1.99431 11.3699 1.99462 11.3698ZM2.12535 11.4946C2.12887 11.5012 2.13037 11.5051 2.13024 11.5054C2.13011 11.5057 2.12835 11.5024 2.12535 11.4946ZM2.13024 1.99462C2.13037 1.99493 2.12887 1.99885 2.12535 2.00543C2.12835 1.9976 2.13011 1.99431 2.13024 1.99462ZM2.00543 2.12535C1.99885 2.12887 1.99493 2.13037 1.99462 2.13024C1.99431 2.13011 1.9976 2.12835 2.00543 2.12535ZM16.0054 2.13024C16.0051 2.13037 16.0012 2.12887 15.9946 2.12535C16.0024 2.12835 16.0057 2.13011 16.0054 2.13024ZM15.8747 2.00543C15.8711 1.99885 15.8696 1.99493 15.8698 1.99462C15.8699 1.99431 15.8716 1.9976 15.8747 2.00543Z" fill="#666666"/>
<path d="M7.99377 7.37189L7.88197 7.59549L7.88197 7.59549L7.99377 7.37189ZM-0.111803 3.59861L7.88197 7.59549L8.10557 7.14828L0.111803 3.15139L-0.111803 3.59861ZM10.118 7.59549L18.1118 3.59861L17.8882 3.15139L9.89443 7.14828L10.118 7.59549ZM7.88197 7.59549C8.58579 7.9474 9.41422 7.9474 10.118 7.59549L9.89443 7.14828C9.33137 7.42981 8.66863 7.42981 8.10557 7.14828L7.88197 7.59549ZM8.65483e-10 4.49303H-0.5H8.65483e-10ZM0.00503574 3.36493L-0.49491 3.35754L0.00503574 3.36493ZM17.995 3.36493L17.495 3.37232V3.37232L17.995 3.36493ZM17.341 0.65901L17.6945 0.305456V0.305456L17.341 0.65901ZM0.65901 0.65901L1.01256 1.01256L0.65901 0.65901ZM15.9355 2.29763L16.431 2.23101V2.23101L15.9355 2.29763ZM15.9928 3.26058L16.2164 3.7078L16.4987 3.56663L16.4927 3.25104L15.9928 3.26058ZM15.901 2.09898L16.3886 1.9884L16.3189 1.68105L16.0116 1.61136L15.901 2.09898ZM15.7024 2.06454L15.6357 2.56008L15.6357 2.56008L15.7024 2.06454ZM2.29763 2.06454L2.36426 2.56008H2.36426L2.29763 2.06454ZM2.09898 2.09898L1.9884 1.61136L1.68106 1.68105L1.61136 1.9884L2.09898 2.09898ZM2.06454 2.29763L2.56008 2.36426V2.36426L2.06454 2.29763ZM2.00723 3.26058L1.50732 3.25104L1.5013 3.56663L1.78363 3.7078L2.00723 3.26058ZM8.44098 6.47746L8.21738 6.92467L8.44098 6.47746ZM9.55902 6.47746L9.78262 6.92467L9.55902 6.47746ZM2 5.49303L2.22361 5.04582L1.5 4.68402V5.49303H2ZM2.06454 11.2024L2.56008 11.1357L2.56008 11.1357L2.06454 11.2024ZM2.09898 11.401L1.61136 11.5116L1.68106 11.8189L1.9884 11.8886L2.09898 11.401ZM2.29763 11.4355L2.36426 10.9399H2.36425L2.29763 11.4355ZM15.7024 11.4355L15.769 11.931H15.769L15.7024 11.4355ZM15.901 11.401L16.0116 11.8886L16.3189 11.8189L16.3886 11.5116L15.901 11.401ZM15.9355 11.2024L16.431 11.269V11.269L15.9355 11.2024ZM16 5.49303H16.5V4.68402L15.7764 5.04582L16 5.49303ZM10.4534 8.26631L10.2298 7.8191L10.4534 8.26631ZM7.54656 8.26631L7.32295 8.71353L7.54656 8.26631ZM15.8698 11.5054L15.4088 11.6991L15.409 11.6996L15.8698 11.5054ZM15.8747 11.4946L16.3416 11.6734L15.4337 11.2589L15.8747 11.4946ZM15.9946 11.3747L15.7589 10.9337L16.1734 11.8416L15.9946 11.3747ZM16.0054 11.3698L16.1979 10.9083L16.1969 10.9079L16.0054 11.3698ZM1.99462 11.3698L2.1865 11.8315L2.18656 11.8315L1.99462 11.3698ZM2.00543 11.3747L1.82656 11.8416L2.24109 10.9337L2.00543 11.3747ZM2.12535 11.4946L2.56633 11.2589L1.65845 11.6735L2.12535 11.4946ZM2.13024 11.5054L2.59157 11.6982L2.59169 11.6979L2.13024 11.5054ZM2.13024 1.99462L2.59177 1.8023L2.59165 1.802L2.13024 1.99462ZM2.12535 2.00543L1.65845 1.82654L2.56632 2.24111L2.12535 2.00543ZM2.00543 2.12535L2.24109 2.56633L1.82655 1.65844L2.00543 2.12535ZM1.99462 2.13024L1.802 2.59165L1.8023 2.59177L1.99462 2.13024ZM16.0054 2.13024L16.1963 2.59236L16.1966 2.59223L16.0054 2.13024ZM15.9946 2.12535L16.1734 1.65844L15.7589 2.56633L15.9946 2.12535ZM15.8747 2.00543L15.4337 2.2411L16.3415 1.82653L15.8747 2.00543ZM15.8698 1.99462L16.3307 2.18846L16.3311 2.18732L15.8698 1.99462ZM0.5 4.49303C0.5 4.07704 0.500039 3.70658 0.504981 3.37232L-0.49491 3.35754C-0.499983 3.70062 -0.5 4.07893 -0.5 4.49303H0.5ZM0.5 4.5C0.5 4.49884 0.5 4.49768 0.5 4.49652C0.5 4.49536 0.5 4.49419 0.5 4.49303H-0.5C-0.5 4.49419 -0.5 4.49536 -0.5 4.49652C-0.5 4.49768 -0.5 4.49884 -0.5 4.5H0.5ZM0.5 9V4.5H-0.5V9H0.5ZM1.01256 12.4874C0.791443 12.2663 0.65284 11.9595 0.577918 11.4022C0.501062 10.8306 0.5 10.0748 0.5 9H-0.5C-0.5 10.0465 -0.501062 10.8817 -0.413165 11.5355C-0.323335 12.2036 -0.132433 12.7567 0.305456 13.1945L1.01256 12.4874ZM4.5 13C3.4252 13 2.66941 12.9989 2.09776 12.9221C1.5405 12.8472 1.23368 12.7086 1.01256 12.4874L0.305456 13.1945C0.743346 13.6324 1.29636 13.8233 1.96451 13.9132C2.61828 14.0011 3.45347 14 4.5 14V13ZM13.5 13H4.5V14H13.5V13ZM16.9874 12.4874C16.7663 12.7086 16.4595 12.8472 15.9022 12.9221C15.3306 12.9989 14.5748 13 13.5 13V14C14.5465 14 15.3817 14.0011 16.0355 13.9132C16.7036 13.8233 17.2567 13.6324 17.6945 13.1945L16.9874 12.4874ZM17.5 9C17.5 10.0748 17.4989 10.8306 17.4221 11.4022C17.3472 11.9595 17.2086 12.2663 16.9874 12.4874L17.6945 13.1945C18.1324 12.7567 18.3233 12.2036 18.4132 11.5355C18.5011 10.8817 18.5 10.0465 18.5 9H17.5ZM17.5 4.5V9H18.5V4.5H17.5ZM17.5 4.49303C17.5 4.49304 17.5 4.49304 17.5 4.49305C17.5 4.49305 17.5 4.49306 17.5 4.49306C17.5 4.49307 17.5 4.49307 17.5 4.49308C17.5 4.49308 17.5 4.49308 17.5 4.49309C17.5 4.49309 17.5 4.4931 17.5 4.4931C17.5 4.49311 17.5 4.49311 17.5 4.49312C17.5 4.49312 17.5 4.49312 17.5 4.49313C17.5 4.49313 17.5 4.49314 17.5 4.49314C17.5 4.49315 17.5 4.49315 17.5 4.49316C17.5 4.49316 17.5 4.49317 17.5 4.49317C17.5 4.49318 17.5 4.49318 17.5 4.49318C17.5 4.49319 17.5 4.49319 17.5 4.4932C17.5 4.4932 17.5 4.49321 17.5 4.49321C17.5 4.49322 17.5 4.49322 17.5 4.49322C17.5 4.49323 17.5 4.49323 17.5 4.49324C17.5 4.49324 17.5 4.49325 17.5 4.49325C17.5 4.49326 17.5 4.49326 17.5 4.49327C17.5 4.49327 17.5 4.49327 17.5 4.49328C17.5 4.49328 17.5 4.49329 17.5 4.49329C17.5 4.4933 17.5 4.4933 17.5 4.49331C17.5 4.49331 17.5 4.49332 17.5 4.49332C17.5 4.49332 17.5 4.49333 17.5 4.49333C17.5 4.49334 17.5 4.49334 17.5 4.49335C17.5 4.49335 17.5 4.49336 17.5 4.49336C17.5 4.49337 17.5 4.49337 17.5 4.49337C17.5 4.49338 17.5 4.49338 17.5 4.49339C17.5 4.49339 17.5 4.4934 17.5 4.4934C17.5 4.49341 17.5 4.49341 17.5 4.49342C17.5 4.49342 17.5 4.49342 17.5 4.49343C17.5 4.49343 17.5 4.49344 17.5 4.49344C17.5 4.49345 17.5 4.49345 17.5 4.49346C17.5 4.49346 17.5 4.49346 17.5 4.49347C17.5 4.49347 17.5 4.49348 17.5 4.49348C17.5 4.49349 17.5 4.49349 17.5 4.4935C17.5 4.4935 17.5 4.49351 17.5 4.49351C17.5 4.49352 17.5 4.49352 17.5 4.49352C17.5 4.49353 17.5 4.49353 17.5 4.49354C17.5 4.49354 17.5 4.49355 17.5 4.49355C17.5 4.49356 17.5 4.49356 17.5 4.49356C17.5 4.49357 17.5 4.49357 17.5 4.49358C17.5 4.49358 17.5 4.49359 17.5 4.49359C17.5 4.4936 17.5 4.4936 17.5 4.49361C17.5 4.49361 17.5 4.49361 17.5 4.49362C17.5 4.49362 17.5 4.49363 17.5 4.49363C17.5 4.49364 17.5 4.49364 17.5 4.49365C17.5 4.49365 17.5 4.49366 17.5 4.49366C17.5 4.49366 17.5 4.49367 17.5 4.49367C17.5 4.49368 17.5 4.49368 17.5 4.49369C17.5 4.49369 17.5 4.4937 17.5 4.4937C17.5 4.49371 17.5 4.49371 17.5 4.49371C17.5 4.49372 17.5 4.49372 17.5 4.49373C17.5 4.49373 17.5 4.49374 17.5 4.49374C17.5 4.49375 17.5 4.49375 17.5 4.49375C17.5 4.49376 17.5 4.49376 17.5 4.49377C17.5 4.49377 17.5 4.49378 17.5 4.49378C17.5 4.49379 17.5 4.49379 17.5 4.4938C17.5 4.4938 17.5 4.4938 17.5 4.49381C17.5 4.49381 17.5 4.49382 17.5 4.49382C17.5 4.49383 17.5 4.49383 17.5 4.49384C17.5 4.49384 17.5 4.49385 17.5 4.49385C17.5 4.49385 17.5 4.49386 17.5 4.49386C17.5 4.49387 17.5 4.49387 17.5 4.49388C17.5 4.49388 17.5 4.49389 17.5 4.49389C17.5 4.4939 17.5 4.4939 17.5 4.4939C17.5 4.49391 17.5 4.49391 17.5 4.49392C17.5 4.49392 17.5 4.49393 17.5 4.49393C17.5 4.49394 17.5 4.49394 17.5 4.49395C17.5 4.49395 17.5 4.49395 17.5 4.49396C17.5 4.49396 17.5 4.49397 17.5 4.49397C17.5 4.49398 17.5 4.49398 17.5 4.49399C17.5 4.49399 17.5 4.494 17.5 4.494C17.5 4.494 17.5 4.49401 17.5 4.49401C17.5 4.49402 17.5 4.49402 17.5 4.49403C17.5 4.49403 17.5 4.49404 17.5 4.49404C17.5 4.49405 17.5 4.49405 17.5 4.49405C17.5 4.49406 17.5 4.49406 17.5 4.49407C17.5 4.49407 17.5 4.49408 17.5 4.49408C17.5 4.49409 17.5 4.49409 17.5 4.4941C17.5 4.4941 17.5 4.4941 17.5 4.49411C17.5 4.49411 17.5 4.49412 17.5 4.49412C17.5 4.49413 17.5 4.49413 17.5 4.49414C17.5 4.49414 17.5 4.49414 17.5 4.49415C17.5 4.49415 17.5 4.49416 17.5 4.49416C17.5 4.49417 17.5 4.49417 17.5 4.49418C17.5 4.49418 17.5 4.49419 17.5 4.49419C17.5 4.49419 17.5 4.4942 17.5 4.4942C17.5 4.49421 17.5 4.49421 17.5 4.49422C17.5 4.49422 17.5 4.49423 17.5 4.49423C17.5 4.49424 17.5 4.49424 17.5 4.49424C17.5 4.49425 17.5 4.49425 17.5 4.49426C17.5 4.49426 17.5 4.49427 17.5 4.49427C17.5 4.49428 17.5 4.49428 17.5 4.49429C17.5 4.49429 17.5 4.49429 17.5 4.4943C17.5 4.4943 17.5 4.49431 17.5 4.49431C17.5 4.49432 17.5 4.49432 17.5 4.49433C17.5 4.49433 17.5 4.49434 17.5 4.49434C17.5 4.49434 17.5 4.49435 17.5 4.49435C17.5 4.49436 17.5 4.49436 17.5 4.49437C17.5 4.49437 17.5 4.49438 17.5 4.49438C17.5 4.49439 17.5 4.49439 17.5 4.49439C17.5 4.4944 17.5 4.4944 17.5 4.49441C17.5 4.49441 17.5 4.49442 17.5 4.49442C17.5 4.49443 17.5 4.49443 17.5 4.49444C17.5 4.49444 17.5 4.49444 17.5 4.49445C17.5 4.49445 17.5 4.49446 17.5 4.49446C17.5 4.49447 17.5 4.49447 17.5 4.49448C17.5 4.49448 17.5 4.49448 17.5 4.49449C17.5 4.49449 17.5 4.4945 17.5 4.4945C17.5 4.49451 17.5 4.49451 17.5 4.49452C17.5 4.49452 17.5 4.49453 17.5 4.49453C17.5 4.49453 17.5 4.49454 17.5 4.49454C17.5 4.49455 17.5 4.49455 17.5 4.49456C17.5 4.49456 17.5 4.49457 17.5 4.49457C17.5 4.49458 17.5 4.49458 17.5 4.49458C17.5 4.49459 17.5 4.49459 17.5 4.4946C17.5 4.4946 17.5 4.49461 17.5 4.49461C17.5 4.49462 17.5 4.49462 17.5 4.49463C17.5 4.49463 17.5 4.49463 17.5 4.49464C17.5 4.49464 17.5 4.49465 17.5 4.49465C17.5 4.49466 17.5 4.49466 17.5 4.49467C17.5 4.49467 17.5 4.49468 17.5 4.49468C17.5 4.49468 17.5 4.49469 17.5 4.49469C17.5 4.4947 17.5 4.4947 17.5 4.49471C17.5 4.49471 17.5 4.49472 17.5 4.49472C17.5 4.49473 17.5 4.49473 17.5 4.49473C17.5 4.49474 17.5 4.49474 17.5 4.49475C17.5 4.49475 17.5 4.49476 17.5 4.49476C17.5 4.49477 17.5 4.49477 17.5 4.49478C17.5 4.49478 17.5 4.49478 17.5 4.49479C17.5 4.49479 17.5 4.4948 17.5 4.4948C17.5 4.49481 17.5 4.49481 17.5 4.49482C17.5 4.49482 17.5 4.49482 17.5 4.49483C17.5 4.49483 17.5 4.49484 17.5 4.49484C17.5 4.49485 17.5 4.49485 17.5 4.49486C17.5 4.49486 17.5 4.49487 17.5 4.49487C17.5 4.49487 17.5 4.49488 17.5 4.49488C17.5 4.49489 17.5 4.49489 17.5 4.4949C17.5 4.4949 17.5 4.49491 17.5 4.49491C17.5 4.49492 17.5 4.49492 17.5 4.49492C17.5 4.49493 17.5 4.49493 17.5 4.49494C17.5 4.49494 17.5 4.49495 17.5 4.49495C17.5 4.49496 17.5 4.49496 17.5 4.49497C17.5 4.49497 17.5 4.49497 17.5 4.49498C17.5 4.49498 17.5 4.49499 17.5 4.49499C17.5 4.495 17.5 4.495 17.5 4.49501C17.5 4.49501 17.5 4.49502 17.5 4.49502C17.5 4.49502 17.5 4.49503 17.5 4.49503C17.5 4.49504 17.5 4.49504 17.5 4.49505C17.5 4.49505 17.5 4.49506 17.5 4.49506C17.5 4.49507 17.5 4.49507 17.5 4.49507C17.5 4.49508 17.5 4.49508 17.5 4.49509C17.5 4.49509 17.5 4.4951 17.5 4.4951C17.5 4.49511 17.5 4.49511 17.5 4.49512C17.5 4.49512 17.5 4.49512 17.5 4.49513C17.5 4.49513 17.5 4.49514 17.5 4.49514C17.5 4.49515 17.5 4.49515 17.5 4.49516C17.5 4.49516 17.5 4.49516 17.5 4.49517C17.5 4.49517 17.5 4.49518 17.5 4.49518C17.5 4.49519 17.5 4.49519 17.5 4.4952C17.5 4.4952 17.5 4.49521 17.5 4.49521C17.5 4.49521 17.5 4.49522 17.5 4.49522C17.5 4.49523 17.5 4.49523 17.5 4.49524C17.5 4.49524 17.5 4.49525 17.5 4.49525C17.5 4.49526 17.5 4.49526 17.5 4.49527C17.5 4.49527 17.5 4.49527 17.5 4.49528C17.5 4.49528 17.5 4.49529 17.5 4.49529C17.5 4.4953 17.5 4.4953 17.5 4.49531C17.5 4.49531 17.5 4.49531 17.5 4.49532C17.5 4.49532 17.5 4.49533 17.5 4.49533C17.5 4.49534 17.5 4.49534 17.5 4.49535C17.5 4.49535 17.5 4.49536 17.5 4.49536C17.5 4.49536 17.5 4.49537 17.5 4.49537C17.5 4.49538 17.5 4.49538 17.5 4.49539C17.5 4.49539 17.5 4.4954 17.5 4.4954C17.5 4.49541 17.5 4.49541 17.5 4.49541C17.5 4.49542 17.5 4.49542 17.5 4.49543C17.5 4.49543 17.5 4.49544 17.5 4.49544C17.5 4.49545 17.5 4.49545 17.5 4.49546C17.5 4.49546 17.5 4.49546 17.5 4.49547C17.5 4.49547 17.5 4.49548 17.5 4.49548C17.5 4.49549 17.5 4.49549 17.5 4.4955C17.5 4.4955 17.5 4.4955 17.5 4.49551C17.5 4.49551 17.5 4.49552 17.5 4.49552C17.5 4.49553 17.5 4.49553 17.5 4.49554C17.5 4.49554 17.5 4.49555 17.5 4.49555C17.5 4.49555 17.5 4.49556 17.5 4.49556C17.5 4.49557 17.5 4.49557 17.5 4.49558C17.5 4.49558 17.5 4.49559 17.5 4.49559C17.5 4.4956 17.5 4.4956 17.5 4.4956C17.5 4.49561 17.5 4.49561 17.5 4.49562C17.5 4.49562 17.5 4.49563 17.5 4.49563C17.5 4.49564 17.5 4.49564 17.5 4.49565C17.5 4.49565 17.5 4.49565 17.5 4.49566C17.5 4.49566 17.5 4.49567 17.5 4.49567C17.5 4.49568 17.5 4.49568 17.5 4.49569C17.5 4.49569 17.5 4.4957 17.5 4.4957C17.5 4.4957 17.5 4.49571 17.5 4.49571C17.5 4.49572 17.5 4.49572 17.5 4.49573C17.5 4.49573 17.5 4.49574 17.5 4.49574C17.5 4.49575 17.5 4.49575 17.5 4.49575C17.5 4.49576 17.5 4.49576 17.5 4.49577C17.5 4.49577 17.5 4.49578 17.5 4.49578C17.5 4.49579 17.5 4.49579 17.5 4.4958C17.5 4.4958 17.5 4.4958 17.5 4.49581C17.5 4.49581 17.5 4.49582 17.5 4.49582C17.5 4.49583 17.5 4.49583 17.5 4.49584C17.5 4.49584 17.5 4.49585 17.5 4.49585C17.5 4.49585 17.5 4.49586 17.5 4.49586C17.5 4.49587 17.5 4.49587 17.5 4.49588C17.5 4.49588 17.5 4.49589 17.5 4.49589C17.5 4.49589 17.5 4.4959 17.5 4.4959C17.5 4.49591 17.5 4.49591 17.5 4.49592C17.5 4.49592 17.5 4.49593 17.5 4.49593C17.5 4.49594 17.5 4.49594 17.5 4.49594C17.5 4.49595 17.5 4.49595 17.5 4.49596C17.5 4.49596 17.5 4.49597 17.5 4.49597C17.5 4.49598 17.5 4.49598 17.5 4.49599C17.5 4.49599 17.5 4.49599 17.5 4.496C17.5 4.496 17.5 4.49601 17.5 4.49601C17.5 4.49602 17.5 4.49602 17.5 4.49603C17.5 4.49603 17.5 4.49604 17.5 4.49604C17.5 4.49604 17.5 4.49605 17.5 4.49605C17.5 4.49606 17.5 4.49606 17.5 4.49607C17.5 4.49607 17.5 4.49608 17.5 4.49608C17.5 4.49609 17.5 4.49609 17.5 4.49609C17.5 4.4961 17.5 4.4961 17.5 4.49611C17.5 4.49611 17.5 4.49612 17.5 4.49612C17.5 4.49613 17.5 4.49613 17.5 4.49614C17.5 4.49614 17.5 4.49614 17.5 4.49615C17.5 4.49615 17.5 4.49616 17.5 4.49616C17.5 4.49617 17.5 4.49617 17.5 4.49618C17.5 4.49618 17.5 4.49619 17.5 4.49619C17.5 4.49619 17.5 4.4962 17.5 4.4962C17.5 4.49621 17.5 4.49621 17.5 4.49622C17.5 4.49622 17.5 4.49623 17.5 4.49623C17.5 4.49624 17.5 4.49624 17.5 4.49624C17.5 4.49625 17.5 4.49625 17.5 4.49626C17.5 4.49626 17.5 4.49627 17.5 4.49627C17.5 4.49628 17.5 4.49628 17.5 4.49628C17.5 4.49629 17.5 4.49629 17.5 4.4963C17.5 4.4963 17.5 4.49631 17.5 4.49631C17.5 4.49632 17.5 4.49632 17.5 4.49633C17.5 4.49633 17.5 4.49634 17.5 4.49634C17.5 4.49634 17.5 4.49635 17.5 4.49635C17.5 4.49636 17.5 4.49636 17.5 4.49637C17.5 4.49637 17.5 4.49638 17.5 4.49638C17.5 4.49638 17.5 4.49639 17.5 4.49639C17.5 4.4964 17.5 4.4964 17.5 4.49641C17.5 4.49641 17.5 4.49642 17.5 4.49642C17.5 4.49643 17.5 4.49643 17.5 4.49643C17.5 4.49644 17.5 4.49644 17.5 4.49645C17.5 4.49645 17.5 4.49646 17.5 4.49646C17.5 4.49647 17.5 4.49647 17.5 4.49648C17.5 4.49648 17.5 4.49648 17.5 4.49649C17.5 4.49649 17.5 4.4965 17.5 4.4965C17.5 4.49651 17.5 4.49651 17.5 4.49652C17.5 4.49652 17.5 4.49653 17.5 4.49653C17.5 4.49653 17.5 4.49654 17.5 4.49654C17.5 4.49655 17.5 4.49655 17.5 4.49656C17.5 4.49656 17.5 4.49657 17.5 4.49657C17.5 4.49658 17.5 4.49658 17.5 4.49658C17.5 4.49659 17.5 4.49659 17.5 4.4966C17.5 4.4966 17.5 4.49661 17.5 4.49661C17.5 4.49662 17.5 4.49662 17.5 4.49662C17.5 4.49663 17.5 4.49663 17.5 4.49664C17.5 4.49664 17.5 4.49665 17.5 4.49665C17.5 4.49666 17.5 4.49666 17.5 4.49667C17.5 4.49667 17.5 4.49668 17.5 4.49668C17.5 4.49668 17.5 4.49669 17.5 4.49669C17.5 4.4967 17.5 4.4967 17.5 4.49671C17.5 4.49671 17.5 4.49672 17.5 4.49672C17.5 4.49673 17.5 4.49673 17.5 4.49673C17.5 4.49674 17.5 4.49674 17.5 4.49675C17.5 4.49675 17.5 4.49676 17.5 4.49676C17.5 4.49677 17.5 4.49677 17.5 4.49677C17.5 4.49678 17.5 4.49678 17.5 4.49679C17.5 4.49679 17.5 4.4968 17.5 4.4968C17.5 4.49681 17.5 4.49681 17.5 4.49682C17.5 4.49682 17.5 4.49682 17.5 4.49683C17.5 4.49683 17.5 4.49684 17.5 4.49684C17.5 4.49685 17.5 4.49685 17.5 4.49686C17.5 4.49686 17.5 4.49687 17.5 4.49687C17.5 4.49687 17.5 4.49688 17.5 4.49688C17.5 4.49689 17.5 4.49689 17.5 4.4969C17.5 4.4969 17.5 4.49691 17.5 4.49691C17.5 4.49692 17.5 4.49692 17.5 4.49692C17.5 4.49693 17.5 4.49693 17.5 4.49694C17.5 4.49694 17.5 4.49695 17.5 4.49695C17.5 4.49696 17.5 4.49696 17.5 4.49697C17.5 4.49697 17.5 4.49697 17.5 4.49698C17.5 4.49698 17.5 4.49699 17.5 4.49699C17.5 4.497 17.5 4.497 17.5 4.49701C17.5 4.49701 17.5 4.49701 17.5 4.49702C17.5 4.49702 17.5 4.49703 17.5 4.49703C17.5 4.49704 17.5 4.49704 17.5 4.49705C17.5 4.49705 17.5 4.49706 17.5 4.49706C17.5 4.49707 17.5 4.49707 17.5 4.49707C17.5 4.49708 17.5 4.49708 17.5 4.49709C17.5 4.49709 17.5 4.4971 17.5 4.4971C17.5 4.49711 17.5 4.49711 17.5 4.49712C17.5 4.49712 17.5 4.49712 17.5 4.49713C17.5 4.49713 17.5 4.49714 17.5 4.49714C17.5 4.49715 17.5 4.49715 17.5 4.49716C17.5 4.49716 17.5 4.49716 17.5 4.49717C17.5 4.49717 17.5 4.49718 17.5 4.49718C17.5 4.49719 17.5 4.49719 17.5 4.4972C17.5 4.4972 17.5 4.49721 17.5 4.49721C17.5 4.49721 17.5 4.49722 17.5 4.49722C17.5 4.49723 17.5 4.49723 17.5 4.49724C17.5 4.49724 17.5 4.49725 17.5 4.49725C17.5 4.49726 17.5 4.49726 17.5 4.49726C17.5 4.49727 17.5 4.49727 17.5 4.49728C17.5 4.49728 17.5 4.49729 17.5 4.49729C17.5 4.4973 17.5 4.4973 17.5 4.49731C17.5 4.49731 17.5 4.49731 17.5 4.49732C17.5 4.49732 17.5 4.49733 17.5 4.49733C17.5 4.49734 17.5 4.49734 17.5 4.49735C17.5 4.49735 17.5 4.49736 17.5 4.49736C17.5 4.49736 17.5 4.49737 17.5 4.49737C17.5 4.49738 17.5 4.49738 17.5 4.49739C17.5 4.49739 17.5 4.4974 17.5 4.4974C17.5 4.49741 17.5 4.49741 17.5 4.49741C17.5 4.49742 17.5 4.49742 17.5 4.49743C17.5 4.49743 17.5 4.49744 17.5 4.49744C17.5 4.49745 17.5 4.49745 17.5 4.49746C17.5 4.49746 17.5 4.49746 17.5 4.49747C17.5 4.49747 17.5 4.49748 17.5 4.49748C17.5 4.49749 17.5 4.49749 17.5 4.4975C17.5 4.4975 17.5 4.49751 17.5 4.49751C17.5 4.49751 17.5 4.49752 17.5 4.49752C17.5 4.49753 17.5 4.49753 17.5 4.49754C17.5 4.49754 17.5 4.49755 17.5 4.49755C17.5 4.49755 17.5 4.49756 17.5 4.49756C17.5 4.49757 17.5 4.49757 17.5 4.49758C17.5 4.49758 17.5 4.49759 17.5 4.49759C17.5 4.4976 17.5 4.4976 17.5 4.4976C17.5 4.49761 17.5 4.49761 17.5 4.49762C17.5 4.49762 17.5 4.49763 17.5 4.49763C17.5 4.49764 17.5 4.49764 17.5 4.49765C17.5 4.49765 17.5 4.49765 17.5 4.49766C17.5 4.49766 17.5 4.49767 17.5 4.49767C17.5 4.49768 17.5 4.49768 17.5 4.49769C17.5 4.49769 17.5 4.4977 17.5 4.4977C17.5 4.4977 17.5 4.49771 17.5 4.49771C17.5 4.49772 17.5 4.49772 17.5 4.49773C17.5 4.49773 17.5 4.49774 17.5 4.49774C17.5 4.49775 17.5 4.49775 17.5 4.49775C17.5 4.49776 17.5 4.49776 17.5 4.49777C17.5 4.49777 17.5 4.49778 17.5 4.49778C17.5 4.49779 17.5 4.49779 17.5 4.4978C17.5 4.4978 17.5 4.4978 17.5 4.49781C17.5 4.49781 17.5 4.49782 17.5 4.49782C17.5 4.49783 17.5 4.49783 17.5 4.49784C17.5 4.49784 17.5 4.49785 17.5 4.49785C17.5 4.49785 17.5 4.49786 17.5 4.49786C17.5 4.49787 17.5 4.49787 17.5 4.49788C17.5 4.49788 17.5 4.49789 17.5 4.49789C17.5 4.4979 17.5 4.4979 17.5 4.4979C17.5 4.49791 17.5 4.49791 17.5 4.49792C17.5 4.49792 17.5 4.49793 17.5 4.49793C17.5 4.49794 17.5 4.49794 17.5 4.49794C17.5 4.49795 17.5 4.49795 17.5 4.49796C17.5 4.49796 17.5 4.49797 17.5 4.49797C17.5 4.49798 17.5 4.49798 17.5 4.49799C17.5 4.49799 17.5 4.49799 17.5 4.498C17.5 4.498 17.5 4.49801 17.5 4.49801C17.5 4.49802 17.5 4.49802 17.5 4.49803C17.5 4.49803 17.5 4.49804 17.5 4.49804C17.5 4.49804 17.5 4.49805 17.5 4.49805C17.5 4.49806 17.5 4.49806 17.5 4.49807C17.5 4.49807 17.5 4.49808 17.5 4.49808C17.5 4.49809 17.5 4.49809 17.5 4.49809C17.5 4.4981 17.5 4.4981 17.5 4.49811C17.5 4.49811 17.5 4.49812 17.5 4.49812C17.5 4.49813 17.5 4.49813 17.5 4.49814C17.5 4.49814 17.5 4.49814 17.5 4.49815C17.5 4.49815 17.5 4.49816 17.5 4.49816C17.5 4.49817 17.5 4.49817 17.5 4.49818C17.5 4.49818 17.5 4.49819 17.5 4.49819C17.5 4.49819 17.5 4.4982 17.5 4.4982C17.5 4.49821 17.5 4.49821 17.5 4.49822C17.5 4.49822 17.5 4.49823 17.5 4.49823C17.5 4.49824 17.5 4.49824 17.5 4.49824C17.5 4.49825 17.5 4.49825 17.5 4.49826C17.5 4.49826 17.5 4.49827 17.5 4.49827C17.5 4.49828 17.5 4.49828 17.5 4.49829C17.5 4.49829 17.5 4.49829 17.5 4.4983C17.5 4.4983 17.5 4.49831 17.5 4.49831C17.5 4.49832 17.5 4.49832 17.5 4.49833C17.5 4.49833 17.5 4.49833 17.5 4.49834C17.5 4.49834 17.5 4.49835 17.5 4.49835C17.5 4.49836 17.5 4.49836 17.5 4.49837C17.5 4.49837 17.5 4.49838 17.5 4.49838C17.5 4.49838 17.5 4.49839 17.5 4.49839C17.5 4.4984 17.5 4.4984 17.5 4.49841C17.5 4.49841 17.5 4.49842 17.5 4.49842C17.5 4.49843 17.5 4.49843 17.5 4.49844C17.5 4.49844 17.5 4.49844 17.5 4.49845C17.5 4.49845 17.5 4.49846 17.5 4.49846C17.5 4.49847 17.5 4.49847 17.5 4.49848C17.5 4.49848 17.5 4.49848 17.5 4.49849C17.5 4.49849 17.5 4.4985 17.5 4.4985C17.5 4.49851 17.5 4.49851 17.5 4.49852C17.5 4.49852 17.5 4.49853 17.5 4.49853C17.5 4.49853 17.5 4.49854 17.5 4.49854C17.5 4.49855 17.5 4.49855 17.5 4.49856C17.5 4.49856 17.5 4.49857 17.5 4.49857C17.5 4.49858 17.5 4.49858 17.5 4.49858C17.5 4.49859 17.5 4.49859 17.5 4.4986C17.5 4.4986 17.5 4.49861 17.5 4.49861C17.5 4.49862 17.5 4.49862 17.5 4.49863C17.5 4.49863 17.5 4.49863 17.5 4.49864C17.5 4.49864 17.5 4.49865 17.5 4.49865C17.5 4.49866 17.5 4.49866 17.5 4.49867C17.5 4.49867 17.5 4.49868 17.5 4.49868C17.5 4.49868 17.5 4.49869 17.5 4.49869C17.5 4.4987 17.5 4.4987 17.5 4.49871C17.5 4.49871 17.5 4.49872 17.5 4.49872C17.5 4.49872 17.5 4.49873 17.5 4.49873C17.5 4.49874 17.5 4.49874 17.5 4.49875C17.5 4.49875 17.5 4.49876 17.5 4.49876C17.5 4.49877 17.5 4.49877 17.5 4.49878C17.5 4.49878 17.5 4.49878 17.5 4.49879C17.5 4.49879 17.5 4.4988 17.5 4.4988C17.5 4.49881 17.5 4.49881 17.5 4.49882C17.5 4.49882 17.5 4.49883 17.5 4.49883C17.5 4.49883 17.5 4.49884 17.5 4.49884C17.5 4.49885 17.5 4.49885 17.5 4.49886C17.5 4.49886 17.5 4.49887 17.5 4.49887C17.5 4.49887 17.5 4.49888 17.5 4.49888C17.5 4.49889 17.5 4.49889 17.5 4.4989C17.5 4.4989 17.5 4.49891 17.5 4.49891C17.5 4.49892 17.5 4.49892 17.5 4.49892C17.5 4.49893 17.5 4.49893 17.5 4.49894C17.5 4.49894 17.5 4.49895 17.5 4.49895C17.5 4.49896 17.5 4.49896 17.5 4.49897C17.5 4.49897 17.5 4.49897 17.5 4.49898C17.5 4.49898 17.5 4.49899 17.5 4.49899C17.5 4.499 17.5 4.499 17.5 4.49901C17.5 4.49901 17.5 4.49902 17.5 4.49902C17.5 4.49902 17.5 4.49903 17.5 4.49903C17.5 4.49904 17.5 4.49904 17.5 4.49905C17.5 4.49905 17.5 4.49906 17.5 4.49906C17.5 4.49907 17.5 4.49907 17.5 4.49907C17.5 4.49908 17.5 4.49908 17.5 4.49909C17.5 4.49909 17.5 4.4991 17.5 4.4991C17.5 4.49911 17.5 4.49911 17.5 4.49912C17.5 4.49912 17.5 4.49912 17.5 4.49913C17.5 4.49913 17.5 4.49914 17.5 4.49914C17.5 4.49915 17.5 4.49915 17.5 4.49916C17.5 4.49916 17.5 4.49917 17.5 4.49917C17.5 4.49917 17.5 4.49918 17.5 4.49918C17.5 4.49919 17.5 4.49919 17.5 4.4992C17.5 4.4992 17.5 4.49921 17.5 4.49921C17.5 4.49922 17.5 4.49922 17.5 4.49922C17.5 4.49923 17.5 4.49923 17.5 4.49924C17.5 4.49924 17.5 4.49925 17.5 4.49925C17.5 4.49926 17.5 4.49926 17.5 4.49927C17.5 4.49927 17.5 4.49927 17.5 4.49928C17.5 4.49928 17.5 4.49929 17.5 4.49929C17.5 4.4993 17.5 4.4993 17.5 4.49931C17.5 4.49931 17.5 4.49931 17.5 4.49932C17.5 4.49932 17.5 4.49933 17.5 4.49933C17.5 4.49934 17.5 4.49934 17.5 4.49935C17.5 4.49935 17.5 4.49936 17.5 4.49936C17.5 4.49936 17.5 4.49937 17.5 4.49937C17.5 4.49938 17.5 4.49938 17.5 4.49939C17.5 4.49939 17.5 4.4994 17.5 4.4994C17.5 4.49941 17.5 4.49941 17.5 4.49941C17.5 4.49942 17.5 4.49942 17.5 4.49943C17.5 4.49943 17.5 4.49944 17.5 4.49944C17.5 4.49945 17.5 4.49945 17.5 4.49946C17.5 4.49946 17.5 4.49946 17.5 4.49947C17.5 4.49947 17.5 4.49948 17.5 4.49948C17.5 4.49949 17.5 4.49949 17.5 4.4995C17.5 4.4995 17.5 4.49951 17.5 4.49951C17.5 4.49951 17.5 4.49952 17.5 4.49952C17.5 4.49953 17.5 4.49953 17.5 4.49954C17.5 4.49954 17.5 4.49955 17.5 4.49955C17.5 4.49956 17.5 4.49956 17.5 4.49956C17.5 4.49957 17.5 4.49957 17.5 4.49958C17.5 4.49958 17.5 4.49959 17.5 4.49959C17.5 4.4996 17.5 4.4996 17.5 4.49961C17.5 4.49961 17.5 4.49961 17.5 4.49962C17.5 4.49962 17.5 4.49963 17.5 4.49963C17.5 4.49964 17.5 4.49964 17.5 4.49965C17.5 4.49965 17.5 4.49966 17.5 4.49966C17.5 4.49966 17.5 4.49967 17.5 4.49967C17.5 4.49968 17.5 4.49968 17.5 4.49969C17.5 4.49969 17.5 4.4997 17.5 4.4997C17.5 4.49971 17.5 4.49971 17.5 4.49971C17.5 4.49972 17.5 4.49972 17.5 4.49973C17.5 4.49973 17.5 4.49974 17.5 4.49974C17.5 4.49975 17.5 4.49975 17.5 4.49975C17.5 4.49976 17.5 4.49976 17.5 4.49977C17.5 4.49977 17.5 4.49978 17.5 4.49978C17.5 4.49979 17.5 4.49979 17.5 4.4998C17.5 4.4998 17.5 4.4998 17.5 4.49981C17.5 4.49981 17.5 4.49982 17.5 4.49982C17.5 4.49983 17.5 4.49983 17.5 4.49984C17.5 4.49984 17.5 4.49985 17.5 4.49985C17.5 4.49986 17.5 4.49986 17.5 4.49986C17.5 4.49987 17.5 4.49987 17.5 4.49988C17.5 4.49988 17.5 4.49989 17.5 4.49989C17.5 4.4999 17.5 4.4999 17.5 4.4999C17.5 4.49991 17.5 4.49991 17.5 4.49992C17.5 4.49992 17.5 4.49993 17.5 4.49993C17.5 4.49994 17.5 4.49994 17.5 4.49995C17.5 4.49995 17.5 4.49995 17.5 4.49996C17.5 4.49996 17.5 4.49997 17.5 4.49997C17.5 4.49998 17.5 4.49998 17.5 4.49999C17.5 4.49999 17.5 4.5 17.5 4.5H18.5C18.5 4.5 18.5 4.49999 18.5 4.49999C18.5 4.49998 18.5 4.49998 18.5 4.49997C18.5 4.49997 18.5 4.49996 18.5 4.49996C18.5 4.49995 18.5 4.49995 18.5 4.49995C18.5 4.49994 18.5 4.49994 18.5 4.49993C18.5 4.49993 18.5 4.49992 18.5 4.49992C18.5 4.49991 18.5 4.49991 18.5 4.4999C18.5 4.4999 18.5 4.4999 18.5 4.49989C18.5 4.49989 18.5 4.49988 18.5 4.49988C18.5 4.49987 18.5 4.49987 18.5 4.49986C18.5 4.49986 18.5 4.49986 18.5 4.49985C18.5 4.49985 18.5 4.49984 18.5 4.49984C18.5 4.49983 18.5 4.49983 18.5 4.49982C18.5 4.49982 18.5 4.49981 18.5 4.49981C18.5 4.4998 18.5 4.4998 18.5 4.4998C18.5 4.49979 18.5 4.49979 18.5 4.49978C18.5 4.49978 18.5 4.49977 18.5 4.49977C18.5 4.49976 18.5 4.49976 18.5 4.49975C18.5 4.49975 18.5 4.49975 18.5 4.49974C18.5 4.49974 18.5 4.49973 18.5 4.49973C18.5 4.49972 18.5 4.49972 18.5 4.49971C18.5 4.49971 18.5 4.49971 18.5 4.4997C18.5 4.4997 18.5 4.49969 18.5 4.49969C18.5 4.49968 18.5 4.49968 18.5 4.49967C18.5 4.49967 18.5 4.49966 18.5 4.49966C18.5 4.49966 18.5 4.49965 18.5 4.49965C18.5 4.49964 18.5 4.49964 18.5 4.49963C18.5 4.49963 18.5 4.49962 18.5 4.49962C18.5 4.49961 18.5 4.49961 18.5 4.49961C18.5 4.4996 18.5 4.4996 18.5 4.49959C18.5 4.49959 18.5 4.49958 18.5 4.49958C18.5 4.49957 18.5 4.49957 18.5 4.49956C18.5 4.49956 18.5 4.49956 18.5 4.49955C18.5 4.49955 18.5 4.49954 18.5 4.49954C18.5 4.49953 18.5 4.49953 18.5 4.49952C18.5 4.49952 18.5 4.49951 18.5 4.49951C18.5 4.49951 18.5 4.4995 18.5 4.4995C18.5 4.49949 18.5 4.49949 18.5 4.49948C18.5 4.49948 18.5 4.49947 18.5 4.49947C18.5 4.49946 18.5 4.49946 18.5 4.49946C18.5 4.49945 18.5 4.49945 18.5 4.49944C18.5 4.49944 18.5 4.49943 18.5 4.49943C18.5 4.49942 18.5 4.49942 18.5 4.49941C18.5 4.49941 18.5 4.49941 18.5 4.4994C18.5 4.4994 18.5 4.49939 18.5 4.49939C18.5 4.49938 18.5 4.49938 18.5 4.49937C18.5 4.49937 18.5 4.49936 18.5 4.49936C18.5 4.49936 18.5 4.49935 18.5 4.49935C18.5 4.49934 18.5 4.49934 18.5 4.49933C18.5 4.49933 18.5 4.49932 18.5 4.49932C18.5 4.49931 18.5 4.49931 18.5 4.49931C18.5 4.4993 18.5 4.4993 18.5 4.49929C18.5 4.49929 18.5 4.49928 18.5 4.49928C18.5 4.49927 18.5 4.49927 18.5 4.49927C18.5 4.49926 18.5 4.49926 18.5 4.49925C18.5 4.49925 18.5 4.49924 18.5 4.49924C18.5 4.49923 18.5 4.49923 18.5 4.49922C18.5 4.49922 18.5 4.49922 18.5 4.49921C18.5 4.49921 18.5 4.4992 18.5 4.4992C18.5 4.49919 18.5 4.49919 18.5 4.49918C18.5 4.49918 18.5 4.49917 18.5 4.49917C18.5 4.49917 18.5 4.49916 18.5 4.49916C18.5 4.49915 18.5 4.49915 18.5 4.49914C18.5 4.49914 18.5 4.49913 18.5 4.49913C18.5 4.49912 18.5 4.49912 18.5 4.49912C18.5 4.49911 18.5 4.49911 18.5 4.4991C18.5 4.4991 18.5 4.49909 18.5 4.49909C18.5 4.49908 18.5 4.49908 18.5 4.49907C18.5 4.49907 18.5 4.49907 18.5 4.49906C18.5 4.49906 18.5 4.49905 18.5 4.49905C18.5 4.49904 18.5 4.49904 18.5 4.49903C18.5 4.49903 18.5 4.49902 18.5 4.49902C18.5 4.49902 18.5 4.49901 18.5 4.49901C18.5 4.499 18.5 4.499 18.5 4.49899C18.5 4.49899 18.5 4.49898 18.5 4.49898C18.5 4.49897 18.5 4.49897 18.5 4.49897C18.5 4.49896 18.5 4.49896 18.5 4.49895C18.5 4.49895 18.5 4.49894 18.5 4.49894C18.5 4.49893 18.5 4.49893 18.5 4.49892C18.5 4.49892 18.5 4.49892 18.5 4.49891C18.5 4.49891 18.5 4.4989 18.5 4.4989C18.5 4.49889 18.5 4.49889 18.5 4.49888C18.5 4.49888 18.5 4.49887 18.5 4.49887C18.5 4.49887 18.5 4.49886 18.5 4.49886C18.5 4.49885 18.5 4.49885 18.5 4.49884C18.5 4.49884 18.5 4.49883 18.5 4.49883C18.5 4.49883 18.5 4.49882 18.5 4.49882C18.5 4.49881 18.5 4.49881 18.5 4.4988C18.5 4.4988 18.5 4.49879 18.5 4.49879C18.5 4.49878 18.5 4.49878 18.5 4.49878C18.5 4.49877 18.5 4.49877 18.5 4.49876C18.5 4.49876 18.5 4.49875 18.5 4.49875C18.5 4.49874 18.5 4.49874 18.5 4.49873C18.5 4.49873 18.5 4.49872 18.5 4.49872C18.5 4.49872 18.5 4.49871 18.5 4.49871C18.5 4.4987 18.5 4.4987 18.5 4.49869C18.5 4.49869 18.5 4.49868 18.5 4.49868C18.5 4.49868 18.5 4.49867 18.5 4.49867C18.5 4.49866 18.5 4.49866 18.5 4.49865C18.5 4.49865 18.5 4.49864 18.5 4.49864C18.5 4.49863 18.5 4.49863 18.5 4.49863C18.5 4.49862 18.5 4.49862 18.5 4.49861C18.5 4.49861 18.5 4.4986 18.5 4.4986C18.5 4.49859 18.5 4.49859 18.5 4.49858C18.5 4.49858 18.5 4.49858 18.5 4.49857C18.5 4.49857 18.5 4.49856 18.5 4.49856C18.5 4.49855 18.5 4.49855 18.5 4.49854C18.5 4.49854 18.5 4.49853 18.5 4.49853C18.5 4.49853 18.5 4.49852 18.5 4.49852C18.5 4.49851 18.5 4.49851 18.5 4.4985C18.5 4.4985 18.5 4.49849 18.5 4.49849C18.5 4.49848 18.5 4.49848 18.5 4.49848C18.5 4.49847 18.5 4.49847 18.5 4.49846C18.5 4.49846 18.5 4.49845 18.5 4.49845C18.5 4.49844 18.5 4.49844 18.5 4.49844C18.5 4.49843 18.5 4.49843 18.5 4.49842C18.5 4.49842 18.5 4.49841 18.5 4.49841C18.5 4.4984 18.5 4.4984 18.5 4.49839C18.5 4.49839 18.5 4.49838 18.5 4.49838C18.5 4.49838 18.5 4.49837 18.5 4.49837C18.5 4.49836 18.5 4.49836 18.5 4.49835C18.5 4.49835 18.5 4.49834 18.5 4.49834C18.5 4.49833 18.5 4.49833 18.5 4.49833C18.5 4.49832 18.5 4.49832 18.5 4.49831C18.5 4.49831 18.5 4.4983 18.5 4.4983C18.5 4.49829 18.5 4.49829 18.5 4.49829C18.5 4.49828 18.5 4.49828 18.5 4.49827C18.5 4.49827 18.5 4.49826 18.5 4.49826C18.5 4.49825 18.5 4.49825 18.5 4.49824C18.5 4.49824 18.5 4.49824 18.5 4.49823C18.5 4.49823 18.5 4.49822 18.5 4.49822C18.5 4.49821 18.5 4.49821 18.5 4.4982C18.5 4.4982 18.5 4.49819 18.5 4.49819C18.5 4.49819 18.5 4.49818 18.5 4.49818C18.5 4.49817 18.5 4.49817 18.5 4.49816C18.5 4.49816 18.5 4.49815 18.5 4.49815C18.5 4.49814 18.5 4.49814 18.5 4.49814C18.5 4.49813 18.5 4.49813 18.5 4.49812C18.5 4.49812 18.5 4.49811 18.5 4.49811C18.5 4.4981 18.5 4.4981 18.5 4.49809C18.5 4.49809 18.5 4.49809 18.5 4.49808C18.5 4.49808 18.5 4.49807 18.5 4.49807C18.5 4.49806 18.5 4.49806 18.5 4.49805C18.5 4.49805 18.5 4.49804 18.5 4.49804C18.5 4.49804 18.5 4.49803 18.5 4.49803C18.5 4.49802 18.5 4.49802 18.5 4.49801C18.5 4.49801 18.5 4.498 18.5 4.498C18.5 4.49799 18.5 4.49799 18.5 4.49799C18.5 4.49798 18.5 4.49798 18.5 4.49797C18.5 4.49797 18.5 4.49796 18.5 4.49796C18.5 4.49795 18.5 4.49795 18.5 4.49794C18.5 4.49794 18.5 4.49794 18.5 4.49793C18.5 4.49793 18.5 4.49792 18.5 4.49792C18.5 4.49791 18.5 4.49791 18.5 4.4979C18.5 4.4979 18.5 4.4979 18.5 4.49789C18.5 4.49789 18.5 4.49788 18.5 4.49788C18.5 4.49787 18.5 4.49787 18.5 4.49786C18.5 4.49786 18.5 4.49785 18.5 4.49785C18.5 4.49785 18.5 4.49784 18.5 4.49784C18.5 4.49783 18.5 4.49783 18.5 4.49782C18.5 4.49782 18.5 4.49781 18.5 4.49781C18.5 4.4978 18.5 4.4978 18.5 4.4978C18.5 4.49779 18.5 4.49779 18.5 4.49778C18.5 4.49778 18.5 4.49777 18.5 4.49777C18.5 4.49776 18.5 4.49776 18.5 4.49775C18.5 4.49775 18.5 4.49775 18.5 4.49774C18.5 4.49774 18.5 4.49773 18.5 4.49773C18.5 4.49772 18.5 4.49772 18.5 4.49771C18.5 4.49771 18.5 4.4977 18.5 4.4977C18.5 4.4977 18.5 4.49769 18.5 4.49769C18.5 4.49768 18.5 4.49768 18.5 4.49767C18.5 4.49767 18.5 4.49766 18.5 4.49766C18.5 4.49765 18.5 4.49765 18.5 4.49765C18.5 4.49764 18.5 4.49764 18.5 4.49763C18.5 4.49763 18.5 4.49762 18.5 4.49762C18.5 4.49761 18.5 4.49761 18.5 4.4976C18.5 4.4976 18.5 4.4976 18.5 4.49759C18.5 4.49759 18.5 4.49758 18.5 4.49758C18.5 4.49757 18.5 4.49757 18.5 4.49756C18.5 4.49756 18.5 4.49755 18.5 4.49755C18.5 4.49755 18.5 4.49754 18.5 4.49754C18.5 4.49753 18.5 4.49753 18.5 4.49752C18.5 4.49752 18.5 4.49751 18.5 4.49751C18.5 4.49751 18.5 4.4975 18.5 4.4975C18.5 4.49749 18.5 4.49749 18.5 4.49748C18.5 4.49748 18.5 4.49747 18.5 4.49747C18.5 4.49746 18.5 4.49746 18.5 4.49746C18.5 4.49745 18.5 4.49745 18.5 4.49744C18.5 4.49744 18.5 4.49743 18.5 4.49743C18.5 4.49742 18.5 4.49742 18.5 4.49741C18.5 4.49741 18.5 4.49741 18.5 4.4974C18.5 4.4974 18.5 4.49739 18.5 4.49739C18.5 4.49738 18.5 4.49738 18.5 4.49737C18.5 4.49737 18.5 4.49736 18.5 4.49736C18.5 4.49736 18.5 4.49735 18.5 4.49735C18.5 4.49734 18.5 4.49734 18.5 4.49733C18.5 4.49733 18.5 4.49732 18.5 4.49732C18.5 4.49731 18.5 4.49731 18.5 4.49731C18.5 4.4973 18.5 4.4973 18.5 4.49729C18.5 4.49729 18.5 4.49728 18.5 4.49728C18.5 4.49727 18.5 4.49727 18.5 4.49726C18.5 4.49726 18.5 4.49726 18.5 4.49725C18.5 4.49725 18.5 4.49724 18.5 4.49724C18.5 4.49723 18.5 4.49723 18.5 4.49722C18.5 4.49722 18.5 4.49721 18.5 4.49721C18.5 4.49721 18.5 4.4972 18.5 4.4972C18.5 4.49719 18.5 4.49719 18.5 4.49718C18.5 4.49718 18.5 4.49717 18.5 4.49717C18.5 4.49716 18.5 4.49716 18.5 4.49716C18.5 4.49715 18.5 4.49715 18.5 4.49714C18.5 4.49714 18.5 4.49713 18.5 4.49713C18.5 4.49712 18.5 4.49712 18.5 4.49712C18.5 4.49711 18.5 4.49711 18.5 4.4971C18.5 4.4971 18.5 4.49709 18.5 4.49709C18.5 4.49708 18.5 4.49708 18.5 4.49707C18.5 4.49707 18.5 4.49707 18.5 4.49706C18.5 4.49706 18.5 4.49705 18.5 4.49705C18.5 4.49704 18.5 4.49704 18.5 4.49703C18.5 4.49703 18.5 4.49702 18.5 4.49702C18.5 4.49701 18.5 4.49701 18.5 4.49701C18.5 4.497 18.5 4.497 18.5 4.49699C18.5 4.49699 18.5 4.49698 18.5 4.49698C18.5 4.49697 18.5 4.49697 18.5 4.49697C18.5 4.49696 18.5 4.49696 18.5 4.49695C18.5 4.49695 18.5 4.49694 18.5 4.49694C18.5 4.49693 18.5 4.49693 18.5 4.49692C18.5 4.49692 18.5 4.49692 18.5 4.49691C18.5 4.49691 18.5 4.4969 18.5 4.4969C18.5 4.49689 18.5 4.49689 18.5 4.49688C18.5 4.49688 18.5 4.49687 18.5 4.49687C18.5 4.49687 18.5 4.49686 18.5 4.49686C18.5 4.49685 18.5 4.49685 18.5 4.49684C18.5 4.49684 18.5 4.49683 18.5 4.49683C18.5 4.49682 18.5 4.49682 18.5 4.49682C18.5 4.49681 18.5 4.49681 18.5 4.4968C18.5 4.4968 18.5 4.49679 18.5 4.49679C18.5 4.49678 18.5 4.49678 18.5 4.49677C18.5 4.49677 18.5 4.49677 18.5 4.49676C18.5 4.49676 18.5 4.49675 18.5 4.49675C18.5 4.49674 18.5 4.49674 18.5 4.49673C18.5 4.49673 18.5 4.49673 18.5 4.49672C18.5 4.49672 18.5 4.49671 18.5 4.49671C18.5 4.4967 18.5 4.4967 18.5 4.49669C18.5 4.49669 18.5 4.49668 18.5 4.49668C18.5 4.49668 18.5 4.49667 18.5 4.49667C18.5 4.49666 18.5 4.49666 18.5 4.49665C18.5 4.49665 18.5 4.49664 18.5 4.49664C18.5 4.49663 18.5 4.49663 18.5 4.49662C18.5 4.49662 18.5 4.49662 18.5 4.49661C18.5 4.49661 18.5 4.4966 18.5 4.4966C18.5 4.49659 18.5 4.49659 18.5 4.49658C18.5 4.49658 18.5 4.49658 18.5 4.49657C18.5 4.49657 18.5 4.49656 18.5 4.49656C18.5 4.49655 18.5 4.49655 18.5 4.49654C18.5 4.49654 18.5 4.49653 18.5 4.49653C18.5 4.49653 18.5 4.49652 18.5 4.49652C18.5 4.49651 18.5 4.49651 18.5 4.4965C18.5 4.4965 18.5 4.49649 18.5 4.49649C18.5 4.49648 18.5 4.49648 18.5 4.49648C18.5 4.49647 18.5 4.49647 18.5 4.49646C18.5 4.49646 18.5 4.49645 18.5 4.49645C18.5 4.49644 18.5 4.49644 18.5 4.49643C18.5 4.49643 18.5 4.49643 18.5 4.49642C18.5 4.49642 18.5 4.49641 18.5 4.49641C18.5 4.4964 18.5 4.4964 18.5 4.49639C18.5 4.49639 18.5 4.49638 18.5 4.49638C18.5 4.49638 18.5 4.49637 18.5 4.49637C18.5 4.49636 18.5 4.49636 18.5 4.49635C18.5 4.49635 18.5 4.49634 18.5 4.49634C18.5 4.49634 18.5 4.49633 18.5 4.49633C18.5 4.49632 18.5 4.49632 18.5 4.49631C18.5 4.49631 18.5 4.4963 18.5 4.4963C18.5 4.49629 18.5 4.49629 18.5 4.49628C18.5 4.49628 18.5 4.49628 18.5 4.49627C18.5 4.49627 18.5 4.49626 18.5 4.49626C18.5 4.49625 18.5 4.49625 18.5 4.49624C18.5 4.49624 18.5 4.49624 18.5 4.49623C18.5 4.49623 18.5 4.49622 18.5 4.49622C18.5 4.49621 18.5 4.49621 18.5 4.4962C18.5 4.4962 18.5 4.49619 18.5 4.49619C18.5 4.49619 18.5 4.49618 18.5 4.49618C18.5 4.49617 18.5 4.49617 18.5 4.49616C18.5 4.49616 18.5 4.49615 18.5 4.49615C18.5 4.49614 18.5 4.49614 18.5 4.49614C18.5 4.49613 18.5 4.49613 18.5 4.49612C18.5 4.49612 18.5 4.49611 18.5 4.49611C18.5 4.4961 18.5 4.4961 18.5 4.49609C18.5 4.49609 18.5 4.49609 18.5 4.49608C18.5 4.49608 18.5 4.49607 18.5 4.49607C18.5 4.49606 18.5 4.49606 18.5 4.49605C18.5 4.49605 18.5 4.49604 18.5 4.49604C18.5 4.49604 18.5 4.49603 18.5 4.49603C18.5 4.49602 18.5 4.49602 18.5 4.49601C18.5 4.49601 18.5 4.496 18.5 4.496C18.5 4.49599 18.5 4.49599 18.5 4.49599C18.5 4.49598 18.5 4.49598 18.5 4.49597C18.5 4.49597 18.5 4.49596 18.5 4.49596C18.5 4.49595 18.5 4.49595 18.5 4.49594C18.5 4.49594 18.5 4.49594 18.5 4.49593C18.5 4.49593 18.5 4.49592 18.5 4.49592C18.5 4.49591 18.5 4.49591 18.5 4.4959C18.5 4.4959 18.5 4.49589 18.5 4.49589C18.5 4.49589 18.5 4.49588 18.5 4.49588C18.5 4.49587 18.5 4.49587 18.5 4.49586C18.5 4.49586 18.5 4.49585 18.5 4.49585C18.5 4.49585 18.5 4.49584 18.5 4.49584C18.5 4.49583 18.5 4.49583 18.5 4.49582C18.5 4.49582 18.5 4.49581 18.5 4.49581C18.5 4.4958 18.5 4.4958 18.5 4.4958C18.5 4.49579 18.5 4.49579 18.5 4.49578C18.5 4.49578 18.5 4.49577 18.5 4.49577C18.5 4.49576 18.5 4.49576 18.5 4.49575C18.5 4.49575 18.5 4.49575 18.5 4.49574C18.5 4.49574 18.5 4.49573 18.5 4.49573C18.5 4.49572 18.5 4.49572 18.5 4.49571C18.5 4.49571 18.5 4.4957 18.5 4.4957C18.5 4.4957 18.5 4.49569 18.5 4.49569C18.5 4.49568 18.5 4.49568 18.5 4.49567C18.5 4.49567 18.5 4.49566 18.5 4.49566C18.5 4.49565 18.5 4.49565 18.5 4.49565C18.5 4.49564 18.5 4.49564 18.5 4.49563C18.5 4.49563 18.5 4.49562 18.5 4.49562C18.5 4.49561 18.5 4.49561 18.5 4.4956C18.5 4.4956 18.5 4.4956 18.5 4.49559C18.5 4.49559 18.5 4.49558 18.5 4.49558C18.5 4.49557 18.5 4.49557 18.5 4.49556C18.5 4.49556 18.5 4.49555 18.5 4.49555C18.5 4.49555 18.5 4.49554 18.5 4.49554C18.5 4.49553 18.5 4.49553 18.5 4.49552C18.5 4.49552 18.5 4.49551 18.5 4.49551C18.5 4.4955 18.5 4.4955 18.5 4.4955C18.5 4.49549 18.5 4.49549 18.5 4.49548C18.5 4.49548 18.5 4.49547 18.5 4.49547C18.5 4.49546 18.5 4.49546 18.5 4.49546C18.5 4.49545 18.5 4.49545 18.5 4.49544C18.5 4.49544 18.5 4.49543 18.5 4.49543C18.5 4.49542 18.5 4.49542 18.5 4.49541C18.5 4.49541 18.5 4.49541 18.5 4.4954C18.5 4.4954 18.5 4.49539 18.5 4.49539C18.5 4.49538 18.5 4.49538 18.5 4.49537C18.5 4.49537 18.5 4.49536 18.5 4.49536C18.5 4.49536 18.5 4.49535 18.5 4.49535C18.5 4.49534 18.5 4.49534 18.5 4.49533C18.5 4.49533 18.5 4.49532 18.5 4.49532C18.5 4.49531 18.5 4.49531 18.5 4.49531C18.5 4.4953 18.5 4.4953 18.5 4.49529C18.5 4.49529 18.5 4.49528 18.5 4.49528C18.5 4.49527 18.5 4.49527 18.5 4.49527C18.5 4.49526 18.5 4.49526 18.5 4.49525C18.5 4.49525 18.5 4.49524 18.5 4.49524C18.5 4.49523 18.5 4.49523 18.5 4.49522C18.5 4.49522 18.5 4.49521 18.5 4.49521C18.5 4.49521 18.5 4.4952 18.5 4.4952C18.5 4.49519 18.5 4.49519 18.5 4.49518C18.5 4.49518 18.5 4.49517 18.5 4.49517C18.5 4.49516 18.5 4.49516 18.5 4.49516C18.5 4.49515 18.5 4.49515 18.5 4.49514C18.5 4.49514 18.5 4.49513 18.5 4.49513C18.5 4.49512 18.5 4.49512 18.5 4.49512C18.5 4.49511 18.5 4.49511 18.5 4.4951C18.5 4.4951 18.5 4.49509 18.5 4.49509C18.5 4.49508 18.5 4.49508 18.5 4.49507C18.5 4.49507 18.5 4.49507 18.5 4.49506C18.5 4.49506 18.5 4.49505 18.5 4.49505C18.5 4.49504 18.5 4.49504 18.5 4.49503C18.5 4.49503 18.5 4.49502 18.5 4.49502C18.5 4.49502 18.5 4.49501 18.5 4.49501C18.5 4.495 18.5 4.495 18.5 4.49499C18.5 4.49499 18.5 4.49498 18.5 4.49498C18.5 4.49497 18.5 4.49497 18.5 4.49497C18.5 4.49496 18.5 4.49496 18.5 4.49495C18.5 4.49495 18.5 4.49494 18.5 4.49494C18.5 4.49493 18.5 4.49493 18.5 4.49492C18.5 4.49492 18.5 4.49492 18.5 4.49491C18.5 4.49491 18.5 4.4949 18.5 4.4949C18.5 4.49489 18.5 4.49489 18.5 4.49488C18.5 4.49488 18.5 4.49487 18.5 4.49487C18.5 4.49487 18.5 4.49486 18.5 4.49486C18.5 4.49485 18.5 4.49485 18.5 4.49484C18.5 4.49484 18.5 4.49483 18.5 4.49483C18.5 4.49482 18.5 4.49482 18.5 4.49482C18.5 4.49481 18.5 4.49481 18.5 4.4948C18.5 4.4948 18.5 4.49479 18.5 4.49479C18.5 4.49478 18.5 4.49478 18.5 4.49478C18.5 4.49477 18.5 4.49477 18.5 4.49476C18.5 4.49476 18.5 4.49475 18.5 4.49475C18.5 4.49474 18.5 4.49474 18.5 4.49473C18.5 4.49473 18.5 4.49473 18.5 4.49472C18.5 4.49472 18.5 4.49471 18.5 4.49471C18.5 4.4947 18.5 4.4947 18.5 4.49469C18.5 4.49469 18.5 4.49468 18.5 4.49468C18.5 4.49468 18.5 4.49467 18.5 4.49467C18.5 4.49466 18.5 4.49466 18.5 4.49465C18.5 4.49465 18.5 4.49464 18.5 4.49464C18.5 4.49463 18.5 4.49463 18.5 4.49463C18.5 4.49462 18.5 4.49462 18.5 4.49461C18.5 4.49461 18.5 4.4946 18.5 4.4946C18.5 4.49459 18.5 4.49459 18.5 4.49458C18.5 4.49458 18.5 4.49458 18.5 4.49457C18.5 4.49457 18.5 4.49456 18.5 4.49456C18.5 4.49455 18.5 4.49455 18.5 4.49454C18.5 4.49454 18.5 4.49453 18.5 4.49453C18.5 4.49453 18.5 4.49452 18.5 4.49452C18.5 4.49451 18.5 4.49451 18.5 4.4945C18.5 4.4945 18.5 4.49449 18.5 4.49449C18.5 4.49448 18.5 4.49448 18.5 4.49448C18.5 4.49447 18.5 4.49447 18.5 4.49446C18.5 4.49446 18.5 4.49445 18.5 4.49445C18.5 4.49444 18.5 4.49444 18.5 4.49444C18.5 4.49443 18.5 4.49443 18.5 4.49442C18.5 4.49442 18.5 4.49441 18.5 4.49441C18.5 4.4944 18.5 4.4944 18.5 4.49439C18.5 4.49439 18.5 4.49439 18.5 4.49438C18.5 4.49438 18.5 4.49437 18.5 4.49437C18.5 4.49436 18.5 4.49436 18.5 4.49435C18.5 4.49435 18.5 4.49434 18.5 4.49434C18.5 4.49434 18.5 4.49433 18.5 4.49433C18.5 4.49432 18.5 4.49432 18.5 4.49431C18.5 4.49431 18.5 4.4943 18.5 4.4943C18.5 4.49429 18.5 4.49429 18.5 4.49429C18.5 4.49428 18.5 4.49428 18.5 4.49427C18.5 4.49427 18.5 4.49426 18.5 4.49426C18.5 4.49425 18.5 4.49425 18.5 4.49424C18.5 4.49424 18.5 4.49424 18.5 4.49423C18.5 4.49423 18.5 4.49422 18.5 4.49422C18.5 4.49421 18.5 4.49421 18.5 4.4942C18.5 4.4942 18.5 4.49419 18.5 4.49419C18.5 4.49419 18.5 4.49418 18.5 4.49418C18.5 4.49417 18.5 4.49417 18.5 4.49416C18.5 4.49416 18.5 4.49415 18.5 4.49415C18.5 4.49414 18.5 4.49414 18.5 4.49414C18.5 4.49413 18.5 4.49413 18.5 4.49412C18.5 4.49412 18.5 4.49411 18.5 4.49411C18.5 4.4941 18.5 4.4941 18.5 4.4941C18.5 4.49409 18.5 4.49409 18.5 4.49408C18.5 4.49408 18.5 4.49407 18.5 4.49407C18.5 4.49406 18.5 4.49406 18.5 4.49405C18.5 4.49405 18.5 4.49405 18.5 4.49404C18.5 4.49404 18.5 4.49403 18.5 4.49403C18.5 4.49402 18.5 4.49402 18.5 4.49401C18.5 4.49401 18.5 4.494 18.5 4.494C18.5 4.494 18.5 4.49399 18.5 4.49399C18.5 4.49398 18.5 4.49398 18.5 4.49397C18.5 4.49397 18.5 4.49396 18.5 4.49396C18.5 4.49395 18.5 4.49395 18.5 4.49395C18.5 4.49394 18.5 4.49394 18.5 4.49393C18.5 4.49393 18.5 4.49392 18.5 4.49392C18.5 4.49391 18.5 4.49391 18.5 4.4939C18.5 4.4939 18.5 4.4939 18.5 4.49389C18.5 4.49389 18.5 4.49388 18.5 4.49388C18.5 4.49387 18.5 4.49387 18.5 4.49386C18.5 4.49386 18.5 4.49385 18.5 4.49385C18.5 4.49385 18.5 4.49384 18.5 4.49384C18.5 4.49383 18.5 4.49383 18.5 4.49382C18.5 4.49382 18.5 4.49381 18.5 4.49381C18.5 4.4938 18.5 4.4938 18.5 4.4938C18.5 4.49379 18.5 4.49379 18.5 4.49378C18.5 4.49378 18.5 4.49377 18.5 4.49377C18.5 4.49376 18.5 4.49376 18.5 4.49375C18.5 4.49375 18.5 4.49375 18.5 4.49374C18.5 4.49374 18.5 4.49373 18.5 4.49373C18.5 4.49372 18.5 4.49372 18.5 4.49371C18.5 4.49371 18.5 4.49371 18.5 4.4937C18.5 4.4937 18.5 4.49369 18.5 4.49369C18.5 4.49368 18.5 4.49368 18.5 4.49367C18.5 4.49367 18.5 4.49366 18.5 4.49366C18.5 4.49366 18.5 4.49365 18.5 4.49365C18.5 4.49364 18.5 4.49364 18.5 4.49363C18.5 4.49363 18.5 4.49362 18.5 4.49362C18.5 4.49361 18.5 4.49361 18.5 4.49361C18.5 4.4936 18.5 4.4936 18.5 4.49359C18.5 4.49359 18.5 4.49358 18.5 4.49358C18.5 4.49357 18.5 4.49357 18.5 4.49356C18.5 4.49356 18.5 4.49356 18.5 4.49355C18.5 4.49355 18.5 4.49354 18.5 4.49354C18.5 4.49353 18.5 4.49353 18.5 4.49352C18.5 4.49352 18.5 4.49352 18.5 4.49351C18.5 4.49351 18.5 4.4935 18.5 4.4935C18.5 4.49349 18.5 4.49349 18.5 4.49348C18.5 4.49348 18.5 4.49347 18.5 4.49347C18.5 4.49346 18.5 4.49346 18.5 4.49346C18.5 4.49345 18.5 4.49345 18.5 4.49344C18.5 4.49344 18.5 4.49343 18.5 4.49343C18.5 4.49342 18.5 4.49342 18.5 4.49342C18.5 4.49341 18.5 4.49341 18.5 4.4934C18.5 4.4934 18.5 4.49339 18.5 4.49339C18.5 4.49338 18.5 4.49338 18.5 4.49337C18.5 4.49337 18.5 4.49337 18.5 4.49336C18.5 4.49336 18.5 4.49335 18.5 4.49335C18.5 4.49334 18.5 4.49334 18.5 4.49333C18.5 4.49333 18.5 4.49332 18.5 4.49332C18.5 4.49332 18.5 4.49331 18.5 4.49331C18.5 4.4933 18.5 4.4933 18.5 4.49329C18.5 4.49329 18.5 4.49328 18.5 4.49328C18.5 4.49327 18.5 4.49327 18.5 4.49327C18.5 4.49326 18.5 4.49326 18.5 4.49325C18.5 4.49325 18.5 4.49324 18.5 4.49324C18.5 4.49323 18.5 4.49323 18.5 4.49322C18.5 4.49322 18.5 4.49322 18.5 4.49321C18.5 4.49321 18.5 4.4932 18.5 4.4932C18.5 4.49319 18.5 4.49319 18.5 4.49318C18.5 4.49318 18.5 4.49318 18.5 4.49317C18.5 4.49317 18.5 4.49316 18.5 4.49316C18.5 4.49315 18.5 4.49315 18.5 4.49314C18.5 4.49314 18.5 4.49313 18.5 4.49313C18.5 4.49312 18.5 4.49312 18.5 4.49312C18.5 4.49311 18.5 4.49311 18.5 4.4931C18.5 4.4931 18.5 4.49309 18.5 4.49309C18.5 4.49308 18.5 4.49308 18.5 4.49308C18.5 4.49307 18.5 4.49307 18.5 4.49306C18.5 4.49306 18.5 4.49305 18.5 4.49305C18.5 4.49304 18.5 4.49304 18.5 4.49303H17.5ZM17.495 3.37232C17.5 3.70658 17.5 4.07704 17.5 4.49303H18.5C18.5 4.07893 18.5 3.70062 18.4949 3.35753L17.495 3.37232ZM16.9874 1.01256C17.3521 1.37726 17.474 1.94982 17.495 3.37232L18.4949 3.35754C18.4749 2.00305 18.3883 0.999171 17.6945 0.305456L16.9874 1.01256ZM13.5 0.5C14.5748 0.5 15.3306 0.501062 15.9022 0.577918C16.4595 0.65284 16.7663 0.791443 16.9874 1.01256L17.6945 0.305456C17.2567 -0.132433 16.7036 -0.323335 16.0355 -0.413165C15.3817 -0.501062 14.5465 -0.5 13.5 -0.5V0.5ZM4.5 0.5H13.5V-0.5H4.5V0.5ZM1.01256 1.01256C1.23368 0.791443 1.5405 0.65284 2.09776 0.577918C2.66941 0.501062 3.4252 0.5 4.5 0.5V-0.5C3.45347 -0.5 2.61828 -0.501062 1.96451 -0.413165C1.29636 -0.323335 0.743346 -0.132433 0.305456 0.305456L1.01256 1.01256ZM0.504981 3.37232C0.526015 1.94982 0.647863 1.37726 1.01256 1.01256L0.305456 0.305456C-0.388259 0.999172 -0.474882 2.00305 -0.49491 3.35754L0.504981 3.37232ZM15.4399 2.36426C15.4693 2.58246 15.4851 2.86398 15.4929 3.27013L16.4927 3.25104C16.4847 2.83528 16.4682 2.50754 16.431 2.23101L15.4399 2.36426ZM15.4134 2.20955C15.4202 2.23959 15.4299 2.28941 15.4399 2.36426L16.431 2.23101C16.4176 2.13125 16.403 2.05169 16.3886 1.9884L15.4134 2.20955ZM15.6357 2.56008C15.7106 2.57015 15.7604 2.57979 15.7904 2.5866L16.0116 1.61136C15.9483 1.597 15.8687 1.58241 15.769 1.569L15.6357 2.56008ZM13.5 2.5C14.6324 2.5 15.2286 2.50534 15.6357 2.56008L15.769 1.569C15.2792 1.50315 14.602 1.5 13.5 1.5V2.5ZM4.5 2.5H13.5V1.5H4.5V2.5ZM2.36426 2.56008C2.77141 2.50534 3.36757 2.5 4.5 2.5V1.5C3.39803 1.5 2.72078 1.50315 2.23101 1.569L2.36426 2.56008ZM2.20956 2.5866C2.23959 2.57979 2.28941 2.57015 2.36426 2.56008L2.23101 1.569C2.13125 1.58241 2.05169 1.59701 1.9884 1.61136L2.20956 2.5866ZM2.56008 2.36426C2.57014 2.28942 2.57979 2.23959 2.5866 2.20955L1.61136 1.9884C1.59701 2.05169 1.58241 2.13125 1.569 2.23101L2.56008 2.36426ZM2.50714 3.27013C2.5149 2.86398 2.53075 2.58245 2.56008 2.36426L1.569 2.23101C1.53182 2.50754 1.51526 2.83528 1.50732 3.25104L2.50714 3.27013ZM8.66459 6.03024L2.23084 2.81337L1.78363 3.7078L8.21738 6.92467L8.66459 6.03024ZM9.33541 6.03024C9.12426 6.13582 8.87574 6.13582 8.66459 6.03024L8.21738 6.92467C8.71005 7.17101 9.28995 7.17101 9.78262 6.92467L9.33541 6.03024ZM15.7692 2.81337L9.33541 6.03024L9.78262 6.92467L16.2164 3.7078L15.7692 2.81337ZM2.5 9V5.49303H1.5V9H2.5ZM2.56008 11.1357C2.50534 10.7286 2.5 10.1324 2.5 9H1.5C1.5 10.102 1.50315 10.7792 1.569 11.269L2.56008 11.1357ZM2.5866 11.2904C2.57979 11.2604 2.57015 11.2106 2.56008 11.1357L1.569 11.269C1.58241 11.3688 1.59701 11.4483 1.61136 11.5116L2.5866 11.2904ZM2.36425 10.9399C2.28941 10.9299 2.23959 10.9202 2.20956 10.9134L1.9884 11.8886C2.05169 11.903 2.13125 11.9176 2.23101 11.931L2.36425 10.9399ZM4.5 11C3.36757 11 2.77141 10.9947 2.36426 10.9399L2.23101 11.931C2.72078 11.9968 3.39803 12 4.5 12V11ZM13.5 11H4.5V12H13.5V11ZM15.6357 10.9399C15.2286 10.9947 14.6324 11 13.5 11V12C14.602 12 15.2792 11.9968 15.769 11.931L15.6357 10.9399ZM15.7904 10.9134C15.7604 10.9202 15.7106 10.9299 15.6357 10.9399L15.769 11.931C15.8688 11.9176 15.9483 11.903 16.0116 11.8886L15.7904 10.9134ZM15.4399 11.1357C15.4299 11.2106 15.4202 11.2604 15.4134 11.2904L16.3886 11.5116C16.403 11.4483 16.4176 11.3687 16.431 11.269L15.4399 11.1357ZM15.5 9C15.5 10.1324 15.4947 10.7286 15.4399 11.1357L16.431 11.269C16.4968 10.7792 16.5 10.102 16.5 9H15.5ZM15.5 5.49303V9H16.5V5.49303H15.5ZM10.6771 8.71352L16.2236 5.94025L15.7764 5.04582L10.2298 7.8191L10.6771 8.71352ZM7.32295 8.71353C8.37868 9.24139 9.62132 9.24139 10.6771 8.71352L10.2298 7.8191C9.45564 8.2062 8.54436 8.2062 7.77016 7.8191L7.32295 8.71353ZM1.77639 5.94025L7.32295 8.71353L7.77016 7.8191L2.22361 5.04582L1.77639 5.94025ZM16.3307 11.3117C16.3622 11.3866 16.3676 11.4511 16.3691 11.4789C16.3708 11.512 16.3689 11.5387 16.3673 11.5543C16.3643 11.5855 16.3589 11.6095 16.3564 11.6201C16.3509 11.6433 16.3449 11.6609 16.3426 11.6676C16.3371 11.6837 16.3319 11.6958 16.3295 11.7013C16.3239 11.7143 16.3189 11.724 16.3156 11.7302L15.4337 11.2589C15.4268 11.2717 15.4194 11.2867 15.4121 11.3033C15.4089 11.3107 15.4032 11.3243 15.3973 11.3414C15.3948 11.3486 15.3887 11.3666 15.3832 11.3901C15.3807 11.4008 15.3752 11.425 15.3722 11.4562C15.3718 11.4601 15.3558 11.5729 15.4088 11.6991L16.3307 11.3117ZM15.4077 11.3157C15.4091 11.3123 15.4127 11.3028 15.4189 11.2898C15.4209 11.2855 15.4285 11.2694 15.4403 11.2495C15.4427 11.2455 15.462 11.212 15.4942 11.1753C15.4985 11.1705 15.5609 11.0943 15.6711 11.0466C15.7345 11.0191 15.8744 10.9754 16.0397 11.0351C16.2135 11.0979 16.2968 11.2313 16.3305 11.3112L15.409 11.6996C15.4427 11.7795 15.5261 11.9129 15.6999 11.9757C15.8652 12.0354 16.0051 11.9917 16.0685 11.9642C16.1788 11.9165 16.2412 11.8402 16.2455 11.8353C16.2779 11.7985 16.2974 11.7647 16.3 11.7603C16.3123 11.7396 16.3205 11.7223 16.3234 11.7162C16.3312 11.6997 16.3372 11.6847 16.3416 11.6734L15.4077 11.3157ZM16.2302 11.8156C16.224 11.819 16.2143 11.8239 16.2013 11.8295C16.1958 11.8319 16.1837 11.8371 16.1676 11.8426C16.1609 11.8449 16.1434 11.8509 16.1203 11.8563C16.1097 11.8588 16.0858 11.8642 16.0548 11.8673C16.0392 11.8689 16.0127 11.8708 15.9798 11.8691C15.9522 11.8677 15.8883 11.8625 15.8139 11.8316L16.1969 10.9079C16.0715 10.8559 15.9599 10.8718 15.9558 10.8722C15.9247 10.8753 15.9006 10.8807 15.8899 10.8832C15.8665 10.8888 15.8486 10.8948 15.8413 10.8973C15.8242 10.9032 15.8107 10.909 15.8033 10.9122C15.7867 10.9194 15.7717 10.9268 15.7589 10.9337L16.2302 11.8156ZM15.8129 11.8312C15.7336 11.7981 15.5997 11.7156 15.536 11.542C15.4752 11.3763 15.5188 11.2356 15.5463 11.1718C15.594 11.0611 15.6706 10.9984 15.6753 10.9943C15.712 10.962 15.7455 10.9427 15.7496 10.9403C15.7694 10.9285 15.7855 10.9209 15.7898 10.9189C15.8028 10.9127 15.8122 10.9091 15.8157 10.9077L16.1734 11.8416C16.1847 11.8372 16.1997 11.8312 16.2162 11.8234C16.2223 11.8205 16.2396 11.8123 16.2603 11.8C16.2647 11.7974 16.2985 11.7779 16.3353 11.7455C16.3401 11.7413 16.4168 11.6786 16.4645 11.5678C16.492 11.504 16.5356 11.3633 16.4748 11.1976C16.4111 11.0239 16.2772 10.9414 16.1979 10.9083L15.8129 11.8312ZM2.18656 11.8315C2.11194 11.8625 2.04789 11.8677 2.02023 11.8691C1.98731 11.8708 1.96078 11.8688 1.94518 11.8673C1.91417 11.8642 1.89023 11.8588 1.87965 11.8563C1.85658 11.8509 1.83907 11.8449 1.83235 11.8426C1.81629 11.8371 1.8042 11.8319 1.79867 11.8295C1.78574 11.8239 1.776 11.819 1.76977 11.8156L2.24109 10.9337C2.22828 10.9268 2.21329 10.9194 2.19668 10.9121C2.1893 10.9089 2.17577 10.9032 2.15868 10.8973C2.15145 10.8949 2.13353 10.8888 2.11016 10.8833C2.09942 10.8807 2.07537 10.8753 2.04426 10.8722C2.04029 10.8718 1.92832 10.8558 1.80268 10.9081L2.18656 11.8315ZM2.1843 10.9077C2.18774 10.9091 2.19719 10.9127 2.21017 10.9189C2.21452 10.9209 2.23058 10.9285 2.2505 10.9403C2.25451 10.9427 2.28815 10.9621 2.32492 10.9945C2.32963 10.9986 2.40654 11.0616 2.45422 11.173C2.48179 11.2373 2.5248 11.3784 2.46331 11.5439C2.39905 11.7169 2.26532 11.7987 2.1865 11.8315L1.80274 10.908C1.7239 10.9408 1.59015 11.0227 1.5259 11.1957C1.4644 11.3612 1.50741 11.5023 1.53499 11.5667C1.58269 11.678 1.65964 11.7411 1.66442 11.7453C1.70135 11.7778 1.73526 11.7974 1.73965 11.8C1.76035 11.8123 1.77766 11.8205 1.78377 11.8234C1.80028 11.8312 1.81529 11.8372 1.82656 11.8416L2.1843 10.9077ZM1.68437 11.7302C1.68105 11.724 1.67608 11.7143 1.67047 11.7013C1.66807 11.6958 1.66295 11.6837 1.6574 11.6677C1.65509 11.661 1.64915 11.6435 1.64369 11.6204C1.64118 11.6098 1.6358 11.5859 1.63271 11.5548C1.63115 11.5392 1.62921 11.5127 1.6309 11.4797C1.63233 11.452 1.63755 11.3877 1.66878 11.3129L2.59169 11.6979C2.64425 11.5719 2.62816 11.4595 2.62778 11.4557C2.62468 11.4246 2.61928 11.4005 2.61674 11.3898C2.6112 11.3664 2.60514 11.3485 2.60265 11.3413C2.59675 11.3242 2.59105 11.3107 2.58785 11.3033C2.58065 11.2867 2.57317 11.2717 2.56633 11.2589L1.68437 11.7302ZM1.66891 11.3126C1.70207 11.2332 1.78466 11.0995 1.95819 11.0359C2.12371 10.9753 2.26426 11.0187 2.32808 11.0462C2.43881 11.0939 2.50149 11.1705 2.50568 11.1752C2.53793 11.2119 2.5573 11.2455 2.55969 11.2495C2.57151 11.2694 2.57908 11.2855 2.58113 11.2898C2.58725 11.3028 2.59093 11.3122 2.59225 11.3157L1.65845 11.6735C1.66277 11.6847 1.66883 11.6997 1.67661 11.7162C1.67949 11.7224 1.68771 11.7397 1.7 11.7603C1.70262 11.7647 1.72217 11.7986 1.75455 11.8354C1.7588 11.8402 1.82154 11.9168 1.93231 11.9646C1.99615 11.9921 2.13672 12.0355 2.30226 11.9749C2.4758 11.9113 2.5584 11.7775 2.59157 11.6982L1.66891 11.3126ZM1.66871 2.18694C1.63755 2.11216 1.63232 2.04795 1.6309 2.02028C1.62921 1.98733 1.63115 1.96078 1.63271 1.94517C1.6358 1.91415 1.64117 1.89021 1.64368 1.87963C1.64915 1.85656 1.65508 1.83905 1.6574 1.83234C1.66294 1.81629 1.66807 1.8042 1.67047 1.79867C1.67608 1.78573 1.68105 1.77599 1.68438 1.76975L2.56632 2.24111C2.57317 2.22829 2.58064 2.21329 2.58785 2.19668C2.59105 2.1893 2.59675 2.17577 2.60265 2.15869C2.60514 2.15146 2.6112 2.13354 2.61674 2.11018C2.61928 2.09945 2.62468 2.07539 2.62778 2.04427C2.62817 2.04041 2.64422 1.92816 2.59177 1.8023L1.66871 2.18694ZM2.59225 2.18432C2.59094 2.18776 2.58725 2.1972 2.58114 2.21018C2.57908 2.21453 2.57151 2.23058 2.55969 2.25049C2.5573 2.2545 2.53791 2.28809 2.50562 2.32481C2.50145 2.32956 2.43867 2.40622 2.32774 2.45392C2.26375 2.48145 2.12308 2.52474 1.95759 2.46385C1.78428 2.40009 1.70189 2.26642 1.66883 2.18724L2.59165 1.802C2.55858 1.7228 2.47618 1.58911 2.30286 1.52535C2.13735 1.46446 1.99667 1.50775 1.93265 1.53528C1.82168 1.58301 1.75885 1.65971 1.75461 1.66453C1.72218 1.70141 1.70262 1.73526 1.7 1.73967C1.68771 1.76035 1.67949 1.77765 1.67661 1.78377C1.66883 1.80027 1.66276 1.81527 1.65845 1.82654L2.59225 2.18432ZM1.76977 1.68437C1.77599 1.68104 1.78573 1.67608 1.79866 1.67048C1.80419 1.66807 1.81627 1.66295 1.83233 1.6574C1.83904 1.65509 1.85654 1.64915 1.87961 1.64368C1.89019 1.64118 1.91413 1.6358 1.94515 1.63271C1.96076 1.63115 1.98732 1.62921 2.02027 1.6309C2.04794 1.63232 2.11215 1.63754 2.18694 1.66871L1.8023 2.59177C1.92817 2.64422 2.04042 2.62817 2.04429 2.62778C2.07541 2.62468 2.09947 2.61928 2.1102 2.61674C2.13356 2.6112 2.15148 2.60514 2.1587 2.60264C2.17578 2.59675 2.18931 2.59105 2.19669 2.58785C2.21329 2.58064 2.22828 2.57317 2.24109 2.56633L1.76977 1.68437ZM2.18724 1.66883C2.26644 1.70189 2.40011 1.78429 2.46386 1.95761C2.52473 2.1231 2.48144 2.26376 2.45392 2.32774C2.40622 2.43866 2.32958 2.50144 2.32482 2.50562C2.2881 2.5379 2.25452 2.55729 2.2505 2.55968C2.23059 2.57151 2.21454 2.57908 2.21018 2.58113C2.1972 2.58725 2.18775 2.59094 2.18431 2.59226L1.82655 1.65844C1.81528 1.66276 1.80027 1.66883 1.78376 1.67661C1.77764 1.67949 1.76034 1.68771 1.73966 1.7C1.73525 1.70262 1.7014 1.72219 1.66452 1.75461C1.6597 1.75886 1.583 1.82169 1.53528 1.93265C1.50775 1.99666 1.46446 2.13733 1.52534 2.30283C1.5891 2.47617 1.72278 2.55858 1.802 2.59165L2.18724 1.66883ZM15.8145 1.66812C15.8888 1.6374 15.9526 1.63227 15.9802 1.63088C16.013 1.62923 16.0395 1.63117 16.055 1.63273C16.086 1.63582 16.1099 1.64119 16.1204 1.6437C16.1435 1.64916 16.161 1.65509 16.1677 1.65741C16.1837 1.66295 16.1958 1.66808 16.2014 1.67048C16.2143 1.67609 16.224 1.68105 16.2302 1.68437L15.7589 2.56633C15.7717 2.57317 15.7867 2.58064 15.8033 2.58784C15.8107 2.59104 15.8242 2.59674 15.8413 2.60264C15.8485 2.60514 15.8664 2.61119 15.8898 2.61672C15.9005 2.61927 15.9245 2.62466 15.9555 2.62776C15.9596 2.62817 16.0711 2.64409 16.1963 2.59236L15.8145 1.66812ZM15.8157 2.59226C15.8123 2.59094 15.8028 2.58725 15.7898 2.58113C15.7855 2.57908 15.7694 2.57149 15.7494 2.55964C15.7454 2.55726 15.7117 2.53781 15.6749 2.50539C15.6702 2.50127 15.5931 2.43805 15.5455 2.32633C15.5179 2.2616 15.4752 2.12025 15.5372 1.95471C15.6019 1.78211 15.7357 1.70073 15.8142 1.66824L16.1966 2.59223C16.2751 2.55974 16.4089 2.47835 16.4736 2.30573C16.5356 2.14018 16.4929 1.99881 16.4653 1.93407C16.4177 1.8223 16.3405 1.75903 16.3357 1.75484C16.2988 1.72229 16.2648 1.70265 16.2604 1.70005C16.2397 1.68773 16.2224 1.6795 16.2163 1.67661C16.1997 1.66883 16.1847 1.66276 16.1734 1.65844L15.8157 2.59226ZM16.3156 1.76976C16.319 1.77598 16.3239 1.78573 16.3295 1.79868C16.3319 1.80422 16.3371 1.81632 16.3426 1.83241C16.3449 1.83914 16.3509 1.8567 16.3564 1.87984C16.3589 1.89045 16.3643 1.91449 16.3673 1.94565C16.3689 1.96132 16.3708 1.98801 16.3691 2.02111C16.3676 2.04893 16.3622 2.11343 16.3307 2.18846L15.4089 1.80078C15.3557 1.92709 15.3718 2.03994 15.3722 2.04379C15.3753 2.07504 15.3807 2.0992 15.3832 2.10996C15.3888 2.13341 15.3948 2.15138 15.3973 2.15862C15.4032 2.17573 15.4089 2.18929 15.4121 2.19667C15.4194 2.21329 15.4268 2.22829 15.4337 2.2411L16.3156 1.76976ZM16.3311 2.18732C16.298 2.26676 16.2152 2.40077 16.0413 2.46428C15.8755 2.5248 15.7349 2.48102 15.6713 2.45352C15.5608 2.40573 15.4983 2.32928 15.4941 2.32454C15.462 2.2879 15.4426 2.25441 15.4403 2.25039C15.4285 2.23052 15.4209 2.21451 15.4189 2.21016C15.4127 2.1972 15.4091 2.18777 15.4078 2.18433L16.3415 1.82653C16.3372 1.81526 16.3312 1.80027 16.3234 1.78379C16.3205 1.77767 16.3123 1.7604 16.3001 1.73976C16.2974 1.73536 16.2779 1.7016 16.2456 1.66481C16.2414 1.65999 16.1788 1.5835 16.0683 1.53569C16.0047 1.50818 15.8641 1.4644 15.6983 1.52493C15.5243 1.58844 15.4416 1.72246 15.4084 1.80192L16.3311 2.18732Z" fill="#666666" mask="url(#path-1-inside-1_1_10754)"/>
</svg>
