<svg width="1914" height="1101" viewBox="0 0 1914 1101" fill="none" xmlns="http://www.w3.org/2000/svg">
<path d="M748.875 254C748.875 110.067 857.046 0 998.5 0C1139.95 0 1248.13 110.067 1248.13 254C1248.13 397.933 1139.95 508 998.5 508C857.046 508 748.875 397.933 748.875 254ZM998.5 677.333C615.742 677.333 499.25 956.733 499.25 956.733V1100.67H1497.75V956.733C1497.75 956.733 1381.26 677.333 998.5 677.333Z" fill="white"/>
<path d="M1747.38 211.667C1747.38 328.566 1654.24 423.333 1539.35 423.333C1424.47 423.333 1331.33 328.566 1331.33 211.667C1331.33 94.7674 1424.47 0 1539.35 0C1654.24 0 1747.38 94.7674 1747.38 211.667Z" fill="white"/>
<path d="M1539.35 592.667C1439.5 592.667 1364.62 618.067 1306.37 660.4C1497.75 753.533 1572.64 914.4 1572.64 931.333V939.8H1913.79V829.733C1913.79 821.267 1822.26 592.667 1539.35 592.667Z" fill="white"/>
<path d="M332.833 169.333V846.667" stroke="white" stroke-width="133.333" stroke-miterlimit="10"/>
<path d="M665.667 508H0" stroke="white" stroke-width="133.333" stroke-miterlimit="10"/>
</svg>
