<svg width="885" height="821" viewBox="0 0 885 821" fill="none" xmlns="http://www.w3.org/2000/svg">
<path d="M176.991 697.425H238.938V754.861C238.938 778.311 252.433 799.982 274.336 811.71C296.239 823.431 323.23 823.431 345.133 811.71C367.035 799.981 380.531 778.31 380.531 754.861V697.425H504.425V754.861C504.425 778.311 517.921 799.982 539.824 811.71C561.726 823.431 588.718 823.431 610.62 811.71C632.523 799.981 646.019 778.31 646.019 754.861V697.425H707.966V336.401H176.991V697.425Z" fill="#FEFEFE"/>
<path d="M718.848 4.43236C713.475 1.50928 707.367 -0.0145239 701.149 0.000104658C688.515 0.0147557 676.843 6.26375 670.522 16.4103L617.425 101.993C569.036 62.7471 506.932 41.1213 442.646 41.1213C378.361 41.1213 316.264 62.7471 267.867 101.993L214.422 16.4103C208.101 6.26375 196.43 0.0147332 183.795 0.000104658C177.577 -0.0145464 171.469 1.50926 166.096 4.43236C157.974 8.77666 152.032 15.9341 149.59 24.3365C147.156 32.7322 148.413 41.6918 153.09 49.2294L218.846 154.746C191.42 194.234 176.89 240.218 176.985 287.177H707.96C708.055 240.218 693.524 194.232 666.099 154.746L731.855 49.2294C736.533 41.691 737.789 32.7312 735.355 24.3365C732.914 15.9336 726.971 8.7761 718.848 4.43236ZM340.693 221.535C329.955 221.535 320.275 215.535 316.167 206.341C312.058 197.139 314.326 186.553 321.919 179.512C329.513 172.472 340.93 170.369 350.855 174.179C360.771 177.988 367.242 186.963 367.242 196.919C367.242 210.516 355.358 221.535 340.693 221.535ZM544.223 221.535C533.485 221.535 523.805 215.535 519.697 206.341C515.588 197.139 517.856 186.553 525.449 179.512C533.043 172.472 544.46 170.369 554.385 174.179C564.301 177.988 570.773 186.963 570.773 196.919C570.773 210.516 558.888 221.535 544.223 221.535Z" fill="#FEFEFE"/>
<path d="M831.86 336.401C817.78 336.401 804.267 341.587 794.313 350.818C784.359 360.049 778.763 372.577 778.763 385.63V549.732C778.763 567.322 788.885 583.571 805.312 592.369C821.739 601.16 841.983 601.16 858.409 592.369C874.837 583.57 884.958 567.322 884.958 549.732V385.63C884.958 372.575 879.364 360.047 869.408 350.818C859.452 341.589 845.938 336.401 831.86 336.401Z" fill="#FEFEFE"/>
<path d="M53.0965 336.401C39.0162 336.401 25.504 341.587 15.55 350.818C5.59597 360.049 0 372.577 0 385.63V549.732C0 567.322 10.1217 583.571 26.5487 592.369C42.9758 601.16 63.2194 601.16 79.6462 592.369C96.0733 583.57 106.195 567.322 106.195 549.732V385.63C106.195 372.575 100.601 360.047 90.645 350.818C80.6892 341.589 67.1769 336.401 53.0985 336.401H53.0965Z" fill="#FEFEFE"/>
</svg>
