<svg width="790" height="835" viewBox="0 0 790 835" fill="none" xmlns="http://www.w3.org/2000/svg">
<path d="M132.97 765.069C162.904 800.498 207.881 834.807 259.646 834.807C289.098 834.807 314.114 821.611 341.003 811.979C365.766 803.284 391.95 798.818 418.34 798.783C443.807 798.641 469.039 803.354 492.563 812.639C505.037 817.652 517.375 822.995 530.053 827.614C542.916 832.344 556.591 834.783 570.382 834.807C595.899 834.53 620.729 826.919 641.625 812.969C702.329 773.381 747.306 703.837 779.184 642.943C782.37 636.875 785.421 630.737 788.471 624.669C793.532 614.507 785.563 601.64 771.424 594.253C709.055 561.658 672.537 511.248 666.437 441.706C660.336 372.162 688.749 317.268 745.784 277.411L757.008 268.633C763.245 263.75 759.848 250.224 748.135 239.667V239.661C704.997 199.213 647.206 176.072 586.665 175C574.915 175.006 563.19 175.931 551.6 177.769C498.933 186.346 456.66 210.234 407.044 210.234C391.99 210.246 377.022 208.019 362.692 203.636C321.113 190.965 279.812 175 235.597 175C230.746 175 225.827 175 220.908 175.595C166.397 181.127 115.506 204.191 76.6238 240.98C-0.020091 312.899 -10.8973 424.609 8.22768 519.018C26.5923 610.466 71.7721 692.875 132.966 765.053L132.97 765.069Z" fill="white"/>
<path d="M394.654 175.25C395.642 175.328 396.635 175.328 397.629 175.25C543.686 150.591 559.658 48.4567 560.559 11.1599C560.621 8.10896 559.281 5.17533 556.849 3.05751C554.424 0.945271 551.134 -0.155481 547.771 0.0177498C546.536 0.0177498 545.308 0.140682 544.104 0.392134C396.597 31.309 381.254 127.626 380.827 163.61C380.895 166.828 382.407 169.89 385.012 172.081C387.622 174.277 391.097 175.417 394.652 175.249L394.654 175.25ZM531.244 29.3699C525.368 67.2947 501.107 125.687 409.862 146.965C415.392 111.353 438.616 54.901 531.244 29.3699Z" fill="white"/>
</svg>
