<svg width="458" height="132" viewBox="0 0 458 132" fill="none" xmlns="http://www.w3.org/2000/svg">
<rect x="2.5" y="2.5" width="453" height="127" rx="62.5" fill="#F1F1F1"/>
<rect x="2.5" y="2.5" width="453" height="127" rx="62.5" fill="#009245"/>
<rect x="2.5" y="2.5" width="453" height="127" rx="62.5" stroke="white" stroke-width="5"/>
<g filter="url(#filter0_d_7065_7781)">
<path d="M179.95 77.8H166.85L164.75 84H155.8L168.5 48.9H178.4L191.1 84H182.05L179.95 77.8ZM177.75 71.2L173.4 58.35L169.1 71.2H177.75ZM221.715 60.2C221.715 62.2333 221.249 64.1 220.315 65.8C219.382 67.4667 217.949 68.8167 216.015 69.85C214.082 70.8833 211.682 71.4 208.815 71.4H203.515V84H194.965V48.9H208.815C211.615 48.9 213.982 49.3833 215.915 50.35C217.849 51.3167 219.299 52.65 220.265 54.35C221.232 56.05 221.715 58 221.715 60.2ZM208.165 64.6C209.799 64.6 211.015 64.2167 211.815 63.45C212.615 62.6833 213.015 61.6 213.015 60.2C213.015 58.8 212.615 57.7167 211.815 56.95C211.015 56.1833 209.799 55.8 208.165 55.8H203.515V64.6H208.165ZM252.916 60.2C252.916 62.2333 252.45 64.1 251.516 65.8C250.583 67.4667 249.15 68.8167 247.216 69.85C245.283 70.8833 242.883 71.4 240.016 71.4H234.716V84H226.166V48.9H240.016C242.816 48.9 245.183 49.3833 247.116 50.35C249.05 51.3167 250.5 52.65 251.466 54.35C252.433 56.05 252.916 58 252.916 60.2ZM239.366 64.6C241 64.6 242.216 64.2167 243.016 63.45C243.816 62.6833 244.216 61.6 244.216 60.2C244.216 58.8 243.816 57.7167 243.016 56.95C242.216 56.1833 241 55.8 239.366 55.8H234.716V64.6H239.366ZM275.268 84L267.968 70.75H265.918V84H257.368V48.9H271.718C274.484 48.9 276.834 49.3833 278.768 50.35C280.734 51.3167 282.201 52.65 283.168 54.35C284.134 56.0167 284.618 57.8833 284.618 59.95C284.618 62.2833 283.951 64.3667 282.618 66.2C281.318 68.0333 279.384 69.3333 276.818 70.1L284.918 84H275.268ZM265.918 64.7H271.218C272.784 64.7 273.951 64.3167 274.718 63.55C275.518 62.7833 275.918 61.7 275.918 60.3C275.918 58.9667 275.518 57.9167 274.718 57.15C273.951 56.3833 272.784 56 271.218 56H265.918V64.7ZM306.585 84.35C303.285 84.35 300.251 83.5833 297.485 82.05C294.751 80.5167 292.568 78.3833 290.935 75.65C289.335 72.8833 288.535 69.7833 288.535 66.35C288.535 62.9167 289.335 59.8333 290.935 57.1C292.568 54.3667 294.751 52.2333 297.485 50.7C300.251 49.1667 303.285 48.4 306.585 48.4C309.885 48.4 312.901 49.1667 315.635 50.7C318.401 52.2333 320.568 54.3667 322.135 57.1C323.735 59.8333 324.535 62.9167 324.535 66.35C324.535 69.7833 323.735 72.8833 322.135 75.65C320.535 78.3833 318.368 80.5167 315.635 82.05C312.901 83.5833 309.885 84.35 306.585 84.35ZM306.585 76.55C309.385 76.55 311.618 75.6167 313.285 73.75C314.985 71.8833 315.835 69.4167 315.835 66.35C315.835 63.25 314.985 60.7833 313.285 58.95C311.618 57.0833 309.385 56.15 306.585 56.15C303.751 56.15 301.485 57.0667 299.785 58.9C298.118 60.7333 297.285 63.2167 297.285 66.35C297.285 69.45 298.118 71.9333 299.785 73.8C301.485 75.6333 303.751 76.55 306.585 76.55ZM362.241 48.9L349.791 84H339.091L326.641 48.9H335.741L344.441 75.4L353.191 48.9H362.241ZM374.365 55.75V62.85H385.815V69.45H374.365V77.15H387.315V84H365.815V48.9H387.315V55.75H374.365ZM406.016 48.9C409.716 48.9 412.949 49.6333 415.716 51.1C418.482 52.5667 420.616 54.6333 422.116 57.3C423.649 59.9333 424.416 62.9833 424.416 66.45C424.416 69.8833 423.649 72.9333 422.116 75.6C420.616 78.2667 418.466 80.3333 415.666 81.8C412.899 83.2667 409.682 84 406.016 84H392.866V48.9H406.016ZM405.466 76.6C408.699 76.6 411.216 75.7167 413.016 73.95C414.816 72.1833 415.716 69.6833 415.716 66.45C415.716 63.2167 414.816 60.7 413.016 58.9C411.216 57.1 408.699 56.2 405.466 56.2H401.416V76.6H405.466Z" fill="white"/>
</g>
<circle cx="66" cy="66" r="63.5" fill="#009245" stroke="white" stroke-width="5"/>
<path d="M96.14 60.0011C95.035 58.4144 93.08 57.5077 90.8417 57.5077H79.225C78.46 57.5077 77.7517 57.1961 77.27 56.6294C76.76 56.0627 76.5617 55.2694 76.675 54.4477L78.12 45.1544C78.7433 42.3777 76.9017 39.2611 74.125 38.3261C71.5467 37.3627 68.515 38.6661 67.2967 40.5077L55.34 58.2727L55 58.8394V83.8861L55.425 84.3111L64.4067 91.2527C65.5967 92.4427 68.2883 93.0944 70.1867 93.0944H81.2367C85.0333 93.0944 88.8583 90.2327 89.7083 86.7477L96.6783 65.5261C97.415 63.5144 97.2167 61.5594 96.14 60.0011Z" fill="white"/>
<path d="M46.7615 50.0771H43.8432C39.4515 50.0771 37.6665 51.7771 37.6665 55.9705V84.4738C37.6665 88.6671 39.4515 90.3671 43.8432 90.3671H46.7615C51.1532 90.3671 52.9382 88.6671 52.9382 84.4738V55.9705C52.9382 51.7771 51.1532 50.0771 46.7615 50.0771Z" fill="white"/>
<defs>
<filter id="filter0_d_7065_7781" x="154.8" y="48.4004" width="270.616" height="37.9492" filterUnits="userSpaceOnUse" color-interpolation-filters="sRGB">
<feFlood flood-opacity="0" result="BackgroundImageFix"/>
<feColorMatrix in="SourceAlpha" type="matrix" values="0 0 0 0 0 0 0 0 0 0 0 0 0 0 0 0 0 0 127 0" result="hardAlpha"/>
<feOffset dy="1"/>
<feGaussianBlur stdDeviation="0.5"/>
<feComposite in2="hardAlpha" operator="out"/>
<feColorMatrix type="matrix" values="0 0 0 0 0 0 0 0 0 0 0 0 0 0 0 0 0 0 0.25 0"/>
<feBlend mode="normal" in2="BackgroundImageFix" result="effect1_dropShadow_7065_7781"/>
<feBlend mode="normal" in="SourceGraphic" in2="effect1_dropShadow_7065_7781" result="shape"/>
</filter>
</defs>
</svg>
