<svg width="775" height="808" viewBox="0 0 775 808" fill="none" xmlns="http://www.w3.org/2000/svg">
<path d="M588.729 193.977C599.102 204.795 608.703 216.238 617.704 228.308C615.047 224.732 612.304 221.066 609.646 217.49C627.134 241.362 641.708 267.378 652.938 295.003C651.223 290.712 649.509 286.421 647.794 282.219C659.282 310.828 667.083 340.868 671.026 371.534C670.426 366.795 669.826 362.057 669.226 357.229C673.083 388.163 673.083 419.454 669.226 450.388C669.826 445.649 670.426 440.911 671.026 436.083C667.082 466.749 659.281 496.789 647.794 525.398C649.509 521.107 651.223 516.815 652.938 512.613C641.708 540.238 627.22 566.345 609.646 590.127C612.304 586.551 615.047 582.885 617.704 579.309C599.787 603.449 578.955 625.174 555.81 643.858C559.239 641.087 562.754 638.226 566.183 635.454C543.293 653.692 518.347 668.891 491.858 680.603C495.973 678.815 500.088 677.027 504.117 675.239C476.684 687.219 447.88 695.355 418.476 699.467C423.019 698.841 427.563 698.215 432.192 697.589C402.53 701.612 372.527 701.612 342.865 697.589C347.408 698.215 351.952 698.841 356.581 699.467C327.177 695.354 298.373 687.218 270.94 675.239C275.055 677.027 279.17 678.815 283.199 680.603C256.71 668.891 231.677 653.782 208.874 635.454C212.303 638.226 215.818 641.087 219.247 643.858C196.1 625.172 175.268 603.447 157.353 579.309C160.01 582.885 162.753 586.551 165.411 590.127C147.923 566.255 133.349 540.238 122.119 512.613C123.834 516.905 125.548 521.196 127.263 525.398C115.775 496.789 107.974 466.749 104.031 436.083C104.631 440.821 105.231 445.56 105.831 450.388C101.974 419.454 101.974 388.163 105.831 357.229C105.231 361.967 104.631 366.706 104.031 371.534C107.974 340.868 115.776 310.828 127.263 282.219C125.548 286.51 123.833 290.801 122.119 295.003C133.349 267.378 147.837 241.272 165.411 217.49C162.753 221.066 160.01 224.732 157.353 228.308C175.27 204.168 196.101 182.443 219.247 163.759C215.818 166.53 212.303 169.391 208.874 172.163C231.764 153.925 256.71 138.726 283.199 127.014C279.084 128.802 274.969 130.59 270.94 132.378C298.373 120.398 327.177 112.261 356.581 108.15C352.038 108.776 347.494 109.402 342.865 110.027C372.527 106.004 402.53 106.004 432.192 110.027C427.648 109.402 423.105 108.776 418.476 108.15C447.88 112.262 476.684 120.398 504.117 132.378C500.002 130.59 495.887 128.802 491.858 127.014C518.347 138.726 543.38 153.835 566.183 172.163C562.754 169.391 559.239 166.53 555.81 163.759C567.298 173.146 578.357 183.249 588.729 193.977C598.073 203.722 611.876 209.712 625.078 209.712C637.68 209.712 652.768 203.901 661.427 193.977C670.429 183.785 677.116 170.373 676.515 156.068C675.915 141.853 671.286 128.353 661.427 118.16C633.394 89.1046 600.818 63.6243 565.499 44.9383C531.122 26.7885 494.345 12.9317 456.283 6.40554C418.564 -0.120993 380.757 -2.26669 342.781 2.82937C321.349 5.77973 300.174 9.3559 279.343 15.7036C259.026 21.8724 239.309 30.1871 220.192 39.4853C184.443 56.7408 151.44 81.0588 122.549 108.952C109.347 121.737 97.0886 135.595 86.0293 150.436C72.7416 168.227 60.1392 186.197 49.5095 205.956C30.7346 241.003 16.4195 279.446 8.70392 318.785C0.988465 357.943 -2.18337 398.445 1.58853 438.228C3.64598 460.131 6.73206 482.036 11.8758 503.403C16.5907 522.983 23.106 541.848 30.6506 560.444C38.2803 579.218 46.6822 597.546 56.9687 614.891C68.3703 634.024 81.4871 652.174 95.5452 669.339C121.52 700.988 153.154 728.256 187.187 749.892C219.936 770.634 256.54 786.548 293.746 796.025C330.694 805.412 369.529 809.703 407.505 807.379C445.911 804.965 484.403 797.634 520.407 783.419C540.296 775.551 559.841 766.611 578.359 755.704C597.391 744.528 614.879 731.208 631.939 717.081C663.315 691.243 689.975 659.326 712.094 624.637C733.525 591.022 749.813 553.024 760.358 514.223C766.187 492.856 769.53 471.219 772.188 449.226C774.331 431.524 775.274 413.732 774.931 395.852C774.074 356.157 767.902 315.836 755.815 278.107C743.47 239.575 726.067 202.293 703.006 169.482C690.233 151.422 676.774 133.988 661.6 118.075C652.342 108.33 638.369 102.34 625.251 102.34C612.649 102.34 597.561 108.151 588.902 118.075C579.901 128.267 573.214 141.678 573.814 155.983C574.243 170.288 578.872 183.698 588.731 193.98L588.729 193.977Z" fill="white"/>
<path d="M593.855 115.933L130.995 596.078C124.727 602.58 118.373 609.082 112.105 615.674L111.321 616.487C101.833 626.33 96 640.87 96 654.777C96 668.052 101.659 683.945 111.321 693.067C121.246 702.549 134.305 709.593 148.233 708.961C162.075 708.328 175.132 703.452 185.145 693.067L648.005 212.922C654.273 206.42 660.627 199.918 666.895 193.326L667.679 192.513C677.167 182.67 683 168.13 683 154.223C683 140.948 677.341 125.055 667.679 115.933C657.754 106.451 644.696 99.407 630.767 100.039C616.925 100.672 603.78 105.548 593.855 115.933Z" fill="#FEFEFE"/>
</svg>
