<svg width="718" height="575" viewBox="0 0 718 575" fill="none" xmlns="http://www.w3.org/2000/svg">
<path d="M611.6 84.24C541.912 28.74 457.6 0.985321 358.667 0.985321C259.733 0.985321 175.107 28.74 104.8 84.24C35.42 140.491 0.731995 208.188 0.731995 287.333C0.731995 366.729 35.42 434.173 104.8 489.68C175.107 545.925 259.733 574.049 358.667 574.049C457.6 574.049 541.907 545.924 611.6 489.68C681.912 434.175 717.069 366.727 717.069 287.333C717.069 208.188 681.913 140.493 611.6 84.24ZM332.067 93.5733H385.264V138.745C425.712 141.235 454.8 152.188 472.529 171.6L443.133 212.668C403.311 185.788 366.133 178.819 331.597 191.761C304.223 205.699 300.644 222.621 320.863 242.532C325.842 247.261 336.732 252.985 353.53 259.709L396.467 271.652C424.774 279.621 447.8 292.188 465.53 309.36C483.576 326.532 486.066 351.797 472.998 385.147C458.998 412.772 430.686 430.444 388.066 438.163L387.598 482.589H332.53L332.066 438.532C309.665 435.798 289.134 430.443 270.467 422.48C251.489 414.516 238.421 405.183 231.265 394.48L267.666 358.267C301.265 378.428 330.046 388.756 353.999 389.256C390.087 389.501 409.53 379.548 412.333 359.387C414.51 342.215 399.109 328.652 366.135 318.693C320.401 304.256 292.089 293.557 281.198 286.589C248.531 266.428 234.843 239.423 240.135 205.573C247.911 171.475 278.557 149.079 332.067 138.376L332.067 93.5733Z" fill="#FEFEFE"/>
</svg>
