<svg width="567" height="440" viewBox="0 0 567 440" fill="none" xmlns="http://www.w3.org/2000/svg">
<path d="M367.525 100.853C359.556 100.853 352.228 104.941 348.637 111.406L282.842 229.397C270.053 252.237 307.946 269.535 320.692 246.742L367.831 162.053L375.347 197.138L320.012 343.421H527.026L471.739 197.138L479.169 162.053L526.406 246.742C539.152 269.534 577.045 252.238 564.288 229.397L498.363 111.406C494.783 104.941 487.482 100.853 479.475 100.853H452.635C435.775 108.21 415.557 109.228 396.907 101.949C396.055 101.618 395.257 101.213 394.4 100.853H367.525Z" fill="#F9F9F9"/>
<path d="M367.828 352.593V416.054C367.828 446.452 418.236 446.452 418.236 416.054V352.593H367.828Z" fill="#F9F9F9"/>
<path d="M428.85 352.593V416.054C427.066 447.942 480.967 447.942 479.177 416.054V352.593H428.85Z" fill="#F9F9F9"/>
<path fill-rule="evenodd" clip-rule="evenodd" d="M472.591 67.388C460.87 91.881 429.42 103.16 402.31 92.602C375.206 82.0537 362.768 53.6042 374.441 29.1798C386.163 4.68679 417.612 -6.59245 444.668 3.96586C471.827 14.5142 484.266 42.9287 472.591 67.388Z" fill="#F9F9F9"/>
<path d="M68.308 100.653C58.4249 100.692 49.6093 106.388 46.4333 114.841L1.74131 232.661C-8.28186 259.054 35.5208 272.731 45.5762 246.328L66.388 191.35V415.45C66.388 448.163 120.694 448.163 120.694 415.45L120.688 285.246H133.801V415.438C133.801 448.151 188.107 448.151 188.107 415.438V191.35L208.896 246.328C218.963 272.721 262.798 259.054 252.731 232.661L208.045 114.841C204.874 106.388 196.054 100.692 186.17 100.653H162.991C145.365 109.662 123.545 111.45 103.498 103.64C101.223 102.748 99.0231 101.74 96.9258 100.653L68.3071 100.658L68.308 100.653Z" fill="#F9F9F9"/>
<path fill-rule="evenodd" clip-rule="evenodd" d="M179.075 67.3007C167.397 91.7538 135.995 102.994 108.891 92.4461C81.8623 81.9318 69.4453 53.5169 81.1073 29.1412C92.7857 4.64813 124.187 -6.59119 151.199 3.96587C178.309 14.5045 190.747 42.8464 179.074 67.2995L179.075 67.3007Z" fill="#F9F9F9"/>
</svg>
