<svg width="664" height="666" viewBox="0 0 664 666" fill="none" xmlns="http://www.w3.org/2000/svg">
<path d="M497.998 0.000290207H71.1426C52.2715 0.000290207 34.1796 8.09245 20.8346 22.494C7.49531 36.9012 0 56.4342 0 76.8079V332.833C0 353.207 7.49531 372.74 20.8346 387.147C34.1792 401.549 52.2715 409.641 71.1426 409.641H94.8567V537.654C94.8779 542.706 96.2913 547.643 98.9062 551.832C101.521 556.027 105.226 559.29 109.562 561.211C112.372 562.639 115.459 563.342 118.571 563.256C124.875 563.296 130.931 560.622 135.409 555.833L270.58 409.641H497.993C516.864 409.641 534.955 401.549 548.3 387.147C561.64 372.74 569.135 353.207 569.135 332.833V76.8076C569.135 56.4339 561.64 36.9013 548.3 22.4937C534.956 8.09216 516.864 0 497.993 0L497.998 0.000290207ZM450.57 332.833H213.428C204.953 332.833 197.125 327.953 192.89 320.032C188.655 312.111 188.655 302.35 192.89 294.43C197.125 286.509 204.953 281.628 213.428 281.628H450.57C459.044 281.628 466.873 286.509 471.107 294.43C475.342 302.35 475.342 312.111 471.107 320.032C466.873 327.953 459.044 332.833 450.57 332.833ZM450.57 230.423H165.999C157.525 230.423 149.696 225.543 145.461 217.622C141.227 209.701 141.227 199.94 145.461 192.019C149.696 184.099 157.525 179.218 165.999 179.218H450.57C459.044 179.218 466.873 184.099 471.107 192.019C475.342 199.94 475.342 209.701 471.107 217.622C466.873 225.543 459.044 230.423 450.57 230.423ZM450.57 128.013H118.571C110.096 128.013 102.268 123.133 98.0331 115.212C93.7984 107.291 93.7984 97.5299 98.0331 89.6092C102.268 81.6885 110.097 76.8079 118.571 76.8079H450.57C459.044 76.8079 466.873 81.6884 471.107 89.6092C475.342 97.5301 475.342 107.291 471.107 115.212C466.873 123.132 459.044 128.013 450.57 128.013ZM616.569 107.016V435.241C616.569 442.03 614.07 448.545 609.624 453.345C605.178 458.146 599.143 460.843 592.855 460.843H545.426C539.138 460.843 533.103 463.541 528.657 468.341C524.211 473.142 521.712 479.657 521.712 486.446V578.358L419.98 468.267C415.501 463.478 409.446 460.803 403.141 460.843H270.58L223.152 512.048H393.42L528.591 658.24C533.069 663.029 539.124 665.704 545.429 665.664C548.542 665.749 551.627 665.046 554.438 663.618C558.773 661.698 562.479 658.434 565.094 654.24C567.709 650.051 569.122 645.113 569.143 640.061V512.048H592.857C611.728 512.048 629.82 503.956 643.165 489.555C656.505 475.147 664 455.614 664 435.241V179.215C663.958 163.368 659.379 147.926 650.888 134.999C642.398 122.072 630.409 112.299 616.572 107.013L616.569 107.016Z" fill="#1BA3EF" fill-opacity="0.95"/>
</svg>
